<svg xmlns="http://www.w3.org/2000/svg" viewBox="735 5278 39.083 27.2">
  <defs>
    <style>
      .cls-1 {
        fill: #dd571b;
      }
    </style>
  </defs>
  <g id="Group_56" data-name="Group 56" transform="translate(735 5278)">
    <path id="Path_99" data-name="Path 99" class="cls-1" d="M0,27.875V7.976a2.087,2.087,0,0,1,.237-.53A.915.915,0,0,1,1.3,6.975a1.19,1.19,0,0,1,.473.235c.532.353,1.064.765,1.6,1.119,2.424,1.825,4.789,3.591,7.214,5.416,2.247,1.707,4.553,3.415,6.8,5.181a3.752,3.752,0,0,0,4.257.059c1.36-1,2.661-2,4.021-3,1.419-1.06,2.838-2.178,4.257-3.238,2.01-1.531,4.08-3.061,6.149-4.592.532-.353,1.064-.765,1.6-1.06a.859.859,0,0,1,1.242.53l.177.353v19.9a6.513,6.513,0,0,1-.532,1.119,2.635,2.635,0,0,1-2.306,1.06H2.838a2.59,2.59,0,0,1-2.188-1A4.6,4.6,0,0,1,0,27.875Z" transform="translate(0 -2.854)"/>
    <path id="Path_100" data-name="Path 100" class="cls-1" d="M21.169,0h15.61a2.941,2.941,0,0,1,1.005.118c.532.118.65.53.3.942a12.331,12.331,0,0,1-1.3,1.177c-1.892,1.531-3.784,3-5.676,4.533-1.656,1.3-3.311,2.649-5.026,3.945-.887.706-1.774,1.413-2.72,2.119a3.979,3.979,0,0,1-2.306.589,4.284,4.284,0,0,1-2.9-1.177L12.123,7.477c-2.129-1.707-4.2-3.356-6.327-5-.414-.353-.887-.706-1.3-1.119-.237-.235-.532-.471-.414-.883C4.259.118,4.614.059,4.968,0h16.2Z" transform="translate(-1.657)"/>
  </g>
</svg>
