<svg xmlns="http://www.w3.org/2000/svg" viewBox="735 5363.4 57.3 57.3">
  <defs>
    <style>
      .cls-1 {
        fill: #dd571b;
      }
    </style>
  </defs>
  <path id="Path_75" data-name="Path 75" class="cls-1" d="M28.615,0A28.65,28.65,0,1,0,57.3,28.545,28.685,28.685,0,0,0,28.615,0Zm7.171,29.459c-1.476.07-2.883.141-4.57.211V45.981h-6.96V29.67c-1.2-.07-2.109-.141-3.094-.211V23.834c.914-.07,1.828-.141,2.953-.281.352-3.3-.492-7.1,2.883-9.351,2.812-1.9,6.046-1.125,9.21-1.266V18.35c-1.547.281-3.445.211-4.57,1.055-.773.633-.422,2.6-.633,4.289h5.414C36.138,25.732,35.927,27.49,35.786,29.459Z" transform="translate(735 5363.4)"/>
</svg>
