<svg xmlns="http://www.w3.org/2000/svg" viewBox="804 5363 57 57">
  <defs>
    <style>
      .cls-1 {
        fill: #dd571b;
      }
    </style>
  </defs>
  <g id="Group_23" data-name="Group 23" transform="translate(804 5363)">
    <path id="Path_76" data-name="Path 76" class="cls-1" d="M28.6,0A28.5,28.5,0,1,0,57,28.6,28.58,28.58,0,0,0,28.6,0ZM44.691,37.906c-.07,4.266-2.378,6.644-6.574,6.714q-9.547.1-19.093,0c-4.2-.07-6.574-2.448-6.644-6.714q-.1-9.442,0-18.883c.07-4.336,2.448-6.714,6.784-6.714q9.337-.1,18.674,0c4.476.07,6.784,2.448,6.854,6.924.07,3.077,0,6.225,0,9.372Z" transform="translate(0 0)"/>
    <path id="Path_77" data-name="Path 77" class="cls-1" d="M48.134,36.14H43.518c1.119,4.406.07,8.043-3.567,10.491a8.107,8.107,0,0,1-9.232.21c-3.987-2.448-5.036-6.155-3.987-10.631A10.817,10.817,0,0,0,25.544,36H22.187c0,4.686-.07,9.022,0,13.428A2.811,2.811,0,0,0,25.264,52.3c6.574.07,13.218.07,19.793,0,2.1,0,3.077-1.329,3.077-3.357V39.357C48.134,38.308,48.134,37.189,48.134,36.14Z" transform="translate(-6.66 -10.822)"/>
    <path id="Path_78" data-name="Path 78" class="cls-1" d="M38.4,43.97a6.017,6.017,0,0,0,5.6-5.6,5.943,5.943,0,0,0-5.8-5.875,5.893,5.893,0,0,0-5.6,5.8A5.954,5.954,0,0,0,38.4,43.97Z" transform="translate(-9.799 -9.77)"/>
    <path id="Path_79" data-name="Path 79" class="cls-1" d="M56.115,23.07c-1.818,0-3.427,0-5.245-.07,0,1.748,0,3.427-.07,5.175,1.818,0,3.427,0,5.245.07C56.115,26.567,56.115,24.958,56.115,23.07Z" transform="translate(-15.271 -6.914)"/>
  </g>
</svg>
