<svg xmlns="http://www.w3.org/2000/svg" viewBox="875 5364.2 57 57">
  <defs>
    <style>
      .cls-1 {
        fill: #dd571b;
      }
    </style>
  </defs>
  <path id="Path_80" data-name="Path 80" class="cls-1" d="M28.465,0A28.5,28.5,0,1,0,57,28.465,28.535,28.535,0,0,0,28.465,0Zm14.9,19.933c-2.1,1.4-2.168,3.567-2.448,5.8C39.375,37.977,25.178,45.25,14.267,39.515a2.228,2.228,0,0,1-.56-.42c2.728-.839,5.385-1.679,8.113-2.588-2.168-1.609-3.917-2.937-5.735-4.2.14-.21.21-.49.35-.7.56-.21,1.189-.35,1.958-.629-2.588-1.259-4.266-3.007-4.406-6.085.769.14,1.469.28,2.518.49-2.378-2.658-3.357-5.315-1.609-8.6C18.534,20.7,22.73,23.15,28.115,23.36c.07-.7.07-1.329.14-1.958.56-4.546,5.315-7.413,9.232-5.245a6.329,6.329,0,0,0,5.8.49c-.56.839-1.119,1.679-1.748,2.658.7-.07,1.4-.14,2.308-.28C43.572,19.513,43.572,19.793,43.362,19.933Z" transform="translate(875 5364.2)"/>
</svg>
