<svg xmlns="http://www.w3.org/2000/svg" viewBox="734.896 5209.7 42.003 42.024">
  <defs>
    <style>
      .cls-1 {
        fill: #dd571b;
      }
    </style>
  </defs>
  <g id="Group_26" data-name="Group 26" transform="translate(734.922 5209.678)">
    <path id="Path_96" data-name="Path 96" class="cls-1" d="M31.13,32.556c-4.23-5.416-8.062-10.932-10.152-17.5C18.738,8.034,22.819.914,29.687.111c8.062-.953,14.034,5.867,12.193,13.84C40.636,19.067,35.112,28.745,31.13,32.556Zm.2-16.849a5.355,5.355,0,0,0,5.325-5.516,5.4,5.4,0,0,0-10.8.15A5.352,5.352,0,0,0,31.329,15.707Z" transform="translate(-10.241 0)"/>
    <path id="Path_97" data-name="Path 97" class="cls-1" d="M4.168,64.046c7.664,4.262,27.123,4.212,33.593,0-3.981-2.156-8.361-2.457-12.89-3.009.747-1.053,1.344-1.956,2.04-2.758a1.37,1.37,0,0,1,1.095-.4q5,1.128,10,2.407a6.419,6.419,0,0,1,1.742.9c2.986,1.906,2.986,4.212-.1,6.018-3.583,2.156-7.664,2.808-11.745,3.26-7.166.752-14.283.6-21.25-1.5a19.743,19.743,0,0,1-5.574-2.909c-1.493-1.1-1.443-2.557-.05-3.811a9.121,9.121,0,0,1,3.434-2.106c3.135-.9,6.32-1.555,9.505-2.257a1.444,1.444,0,0,1,1.194.5,33.2,33.2,0,0,1,1.991,2.658C12.678,61.538,8.348,61.889,4.168,64.046Z" transform="translate(0 -28.832)"/>
    <path id="Path_98" data-name="Path 98" class="cls-1" d="M42.224,18.006a2.615,2.615,0,1,1-5.226-.1A2.58,2.58,0,0,1,39.686,15.4,2.539,2.539,0,0,1,42.224,18.006Z" transform="translate(-18.597 -7.665)"/>
  </g>
</svg>
