<svg xmlns="http://www.w3.org/2000/svg" viewBox="10401.764 391.81 37.953 27.358">
  <defs>
    <style>
      .cls-1 {
        fill: #dd571b;
      }
    </style>
  </defs>
  <g id="Group_232" data-name="Group 232" transform="translate(10401.764 391.81)">
    <path id="Path_99" data-name="Path 99" class="cls-1" d="M0,28V7.982a2.137,2.137,0,0,1,.23-.533.878.878,0,0,1,1.034-.474,1.141,1.141,0,0,1,.459.237c.517.355,1.034.77,1.55,1.125,2.354,1.836,4.651,3.612,7,5.448C12.46,15.5,14.7,17.22,16.881,19a3.541,3.541,0,0,0,4.134.059c1.321-1.007,2.584-2.013,3.9-3.02,1.378-1.066,2.756-2.191,4.134-3.257,1.952-1.54,3.962-3.079,5.971-4.619.517-.355,1.034-.77,1.55-1.066s.976,0,1.206.533l.172.355V28a6.657,6.657,0,0,1-.517,1.125A2.525,2.525,0,0,1,35.2,30.188H2.756A2.481,2.481,0,0,1,.632,29.182,4.672,4.672,0,0,1,0,28Z" transform="translate(0 -2.83)"/>
    <path id="Path_100" data-name="Path 100" class="cls-1" d="M20.674,0H35.832a2.763,2.763,0,0,1,.976.118c.517.118.632.533.287.947A12.134,12.134,0,0,1,35.832,2.25c-1.837,1.54-3.675,3.02-5.512,4.56-1.608,1.3-3.215,2.665-4.88,3.968-.861.711-1.723,1.421-2.641,2.132a3.761,3.761,0,0,1-2.239.592,4.086,4.086,0,0,1-2.813-1.184l-5.857-4.8C9.822,5.8,7.813,4.145,5.746,2.487c-.4-.355-.861-.711-1.263-1.125-.23-.237-.517-.474-.4-.888C4.253.118,4.6.059,4.942,0H20.674Z" transform="translate(-1.727)"/>
  </g>
</svg>
