<svg xmlns="http://www.w3.org/2000/svg" viewBox="10401.764 455.512 44.39 44.993">
  <defs>
    <style>
      .cls-1 {
        fill: #dd571b;
      }
    </style>
  </defs>
  <g id="Group_239" data-name="Group 239" transform="translate(10401.764 455.512)">
    <path id="Path_116" data-name="Path 116" class="cls-1" d="M-.081,34.122A15.939,15.939,0,0,1,.6,32.153a5.316,5.316,0,0,1,4.456-2.934c.267-.019.514-.019.781-.019H28.9c-.381.405-.686.714-.99,1.042-1.428,1.448-2.837,2.9-4.285,4.324a.923.923,0,0,1-.59.212c-5.694.019-11.388,0-17.082,0H5.48V62.9H33.226V45.182a.988.988,0,0,1,.324-.772c1.5-1.506,2.99-3.011,4.475-4.536.209-.212.4-.444.59-.656a.415.415,0,0,1,.1.058c0,.1.019.193.019.29,0,7.759.019,15.519,0,23.278a5.442,5.442,0,0,1-3.314,5.231,10.251,10.251,0,0,1-1.543.483H4.813a2.278,2.278,0,0,0-.343-.1A5.375,5.375,0,0,1,.528,65.45,15.112,15.112,0,0,1-.1,63.6C-.081,53.752-.081,43.947-.081,34.122Z" transform="translate(0.1 -23.564)"/>
    <path id="Path_117" data-name="Path 117" class="cls-1" d="M199.808,5.964c-.628.656-1.276,1.313-1.885,1.95C195.942,5.906,194,3.938,192,1.892L193.923,0H194c.057.077.114.174.171.251L198.4,4.536c.457.463.933.907,1.409,1.351Z" transform="translate(-155.418)"/>
    <path id="Path_118" data-name="Path 118" class="cls-1" d="M74.551,65.445,68.8,59.616C74.665,53.69,80.531,47.726,86.4,41.8l5.732,5.81Q83.359,56.528,74.551,65.445Z" transform="translate(-55.679 -33.732)"/>
    <path id="Path_119" data-name="Path 119" class="cls-1" d="M171.7,22.792l1.866-1.892c1.923,1.95,3.866,3.918,5.789,5.887-.609.6-1.276,1.235-1.9,1.834Z" transform="translate(-138.984 -16.866)"/>
    <path id="Path_120" data-name="Path 120" class="cls-1" d="M58.5,146.2l5.389,5.463H58.5Z" transform="translate(-47.341 -117.98)"/>
  </g>
</svg>
