<svg xmlns="http://www.w3.org/2000/svg" viewBox="10403.853 305.31 34.007 38.288">
  <defs>
    <style>
      .cls-1 {
        fill: #dd571b;
      }
    </style>
  </defs>
  <g id="Group_231" data-name="Group 231" transform="translate(10403.853 305.31)">
    <g id="Group_22" data-name="Group 22" transform="translate(0 0)">
      <path id="Path_71" data-name="Path 71" class="cls-1" d="M24.853,15.594c1.81,4.281,5.256,6.613,7.553,6.613,2.262,0,5.43-2.262,7.24-6.509a20.11,20.11,0,0,0,1.114-3.62,14.076,14.076,0,0,0,.452-4C41.212,3.724,37.244,0,32.406,0,27.533,0,23.6,3.724,23.6,8.11a18.6,18.6,0,0,0,.209,2.993A17.676,17.676,0,0,0,24.853,15.594Z" transform="translate(-15.385)"/>
      <path id="Path_72" data-name="Path 72" class="cls-1" d="M32.58,72.034c-1.775-1.88-6.718-1.427-9.154-2.715-1.079,2.019-1.114,5.36-2.924,5.36a.592.592,0,0,1-.244-.035C17.543,74.227,18.9,67.3,16.986,67.3s-.557,6.927-3.272,7.344c-.07,0-.174.035-.244.035-1.81,0-1.81-3.341-2.924-5.36-2.437,1.288-7.379.835-9.154,2.715C.487,73.043,0,79.343,0,82.163H34.007C34.007,79.343,33.519,73.043,32.58,72.034Z" transform="translate(0 -43.875)"/>
    </g>
  </g>
</svg>
