<svg xmlns="http://www.w3.org/2000/svg" viewBox="7512.683 419.987 31.449 38.13">
  <defs>
    <style>
      .cls-1 {
        fill: #003e86;
      }
    </style>
  </defs>
  <path id="Path_418" data-name="Path 418" class="cls-1" d="M15.709,0A9.64,9.64,0,0,0,7.932,4.163a12.322,12.322,0,0,0-2.315,7.276v5.947H0V38.13H31.449V17.351H25.8V11.4C25.8,5.107,21.264,0,15.709,0Zm2.16,32.673H13.549l1.142-5.107A2.759,2.759,0,0,1,13.3,25.082a2.586,2.586,0,0,1,2.407-2.729,2.586,2.586,0,0,1,2.407,2.729,2.864,2.864,0,0,1-1.389,2.484Zm4.784-15.322H8.765V11.4a8.3,8.3,0,0,1,1.42-4.723,6.691,6.691,0,0,1,5.524-3.113c3.827,0,6.944,3.533,6.944,7.871Z" transform="translate(7512.683 419.987)"/>
</svg>
