<svg xmlns="http://www.w3.org/2000/svg" viewBox="37.322 723.77 21.173 21.072">
  <defs>
    <style>
      .cls-1 {
        opacity: 1;
      }

      .cls-2 {
        fill: #fdfefe;
      }
    </style>
  </defs>
  <g id="Group_10" data-name="Group 10" class="cls-1" transform="translate(37.322 723.77)">
    <path id="Path_396" data-name="Path 396" class="cls-2" d="M161.978.041c-.083.335-.166.674-.246,1.009a37.129,37.129,0,0,1-2.248,6.991,15.476,15.476,0,0,1-2.525,4.072,14.718,14.718,0,0,1-5.656,4,6.987,6.987,0,0,1-2.181.483.333.333,0,0,1-.225-.083q-1.776-1.776-3.543-3.568a.3.3,0,0,1-.077-.212,7.032,7.032,0,0,1,.667-2.62,14.6,14.6,0,0,1,6.625-7.062,28.037,28.037,0,0,1,5.7-2.178c1.141-.308,2.3-.563,3.448-.843.058-.015.114-.037.169-.055C161.923-.014,162-.054,161.978.041ZM153.2,6.666a2.024,2.024,0,1,0,2.058-2.005A2.032,2.032,0,0,0,153.2,6.666Z" transform="translate(-140.808 0.024)"/>
    <path id="Path_397" data-name="Path 397" class="cls-2" d="M38.1,477.265a11.032,11.032,0,0,1,1.061-3.109,4.57,4.57,0,0,1,2.633-2.181.638.638,0,0,1,.794.2,9.5,9.5,0,0,0,.818.834.232.232,0,0,1,.083.243,6.3,6.3,0,0,1-.3.929,4.575,4.575,0,0,1-1.9,2.015A11.192,11.192,0,0,1,38.1,477.265Z" transform="translate(-36.928 -457.402)"/>
    <path id="Path_398" data-name="Path 398" class="cls-2" d="M0,291.672a4.674,4.674,0,0,1,1.667-3.054,2.821,2.821,0,0,1,2.685-.4c.243.074.477.178.744.28a10.73,10.73,0,0,0-1.153,2.87A5.676,5.676,0,0,0,0,291.672Z" transform="translate(0 -279.193)"/>
    <path id="Path_399" data-name="Path 399" class="cls-2" d="M278.4,526.532a5.633,5.633,0,0,0,.317-3.918,10.542,10.542,0,0,0,2.83-1.113c.034.018.046.018.049.028a3.243,3.243,0,0,1,.209,2.783,3.318,3.318,0,0,1-1.442,1.547,5.149,5.149,0,0,1-1.821.661A.669.669,0,0,1,278.4,526.532Z" transform="translate(-269.837 -505.46)"/>
  </g>
</svg>
