<svg xmlns="http://www.w3.org/2000/svg" viewBox="717.127 427.934 26.209 36.177">
  <defs>
    <style>
      .cls-1 {
        fill: #ff4f00;
      }
    </style>
  </defs>
  <g id="Group_1" data-name="Group 1" transform="translate(717.127 427.934)">
    <path id="Path_109" data-name="Path 109" class="cls-1" d="M841.828,36.277h-3.815V31.831h-2.42v4.447h-3.815V31.8H823.7V28.016h.342c.5,0,1,0,1.5-.026a1.236,1.236,0,0,0,1.315-1.342c.026-.395.026-.763.026-1.158V11.624c0-.631-.026-1.263-.026-1.868a1.271,1.271,0,0,0-1.315-1.368c-.5-.026-1.026-.026-1.526-.026a1.28,1.28,0,0,1-.316-.026V4.547h8.077V.1h3.815V4.547h2.42V.1h3.815c0,1.421.026,2.842,0,4.289,0,.263.053.368.342.421a14.45,14.45,0,0,1,2.394.579,6.29,6.29,0,0,1,3.5,2.815,5.82,5.82,0,0,1,.079,5.92,6.939,6.939,0,0,1-3.894,3.157c-.105.053-.21.079-.316.132a.6.6,0,0,0,.316.158,9.728,9.728,0,0,1,2.868,1.184,5.84,5.84,0,0,1,2.6,3.736,6.785,6.785,0,0,1-2.71,7.209,9.853,9.853,0,0,1-4.841,1.842c-.263.026-.342.132-.342.395C841.854,33.357,841.828,34.8,841.828,36.277ZM833.645,19.6v5.973a9.758,9.758,0,0,0,.079,1.237.525.525,0,0,0,.552.553q1.381.079,2.763.079a18.3,18.3,0,0,0,2.394-.158,3.753,3.753,0,0,0,2.21-1.026,3.94,3.94,0,0,0,1.237-2.842,3.317,3.317,0,0,0-2.157-3.341,7.335,7.335,0,0,0-2.6-.447c-1.395-.026-2.815-.026-4.21-.026Zm0-4.026c.105,0,.158.026.237.026H836.7a11.6,11.6,0,0,0,3.157-.316,3.419,3.419,0,0,0,2-1.342,3.036,3.036,0,0,0-1.868-4.71,10.073,10.073,0,0,0-1.763-.21c-1.447-.053-2.868-.026-4.315-.053a.728.728,0,0,0-.237.026C833.645,11.177,833.645,13.361,833.645,15.571Z" transform="translate(-823.7 -0.1)"/>
  </g>
</svg>
