<svg xmlns="http://www.w3.org/2000/svg" viewBox="36.608 412.236 19.629 19.623">
  <defs>
    <style>
      .cls-1 {
        opacity: 1;
      }
      .cls-2 {
        fill: #fdfefe;
      }
    </style>
  </defs>
  <g id="Group_5" data-name="Group 5" class="cls-1" transform="translate(36.608 412.236)">
    <path id="Path_386" data-name="Path 386" class="cls-2" d="M9.78-.005A9.811,9.811,0,1,1-.036,9.6,9.811,9.811,0,0,1,9.78-.005ZM9.775,18.017A8.218,8.218,0,1,0,1.553,9.79,8.235,8.235,0,0,0,9.775,18.017Z" transform="translate(0.038 0.005)"/>
    <path id="Path_387" data-name="Path 387" class="cls-2" d="M169.8,64.005a1.256,1.256,0,0,1-1.277,1.338,1.221,1.221,0,0,1-1.266-1.3c.061-1.021.174-2.043.255-3.069.077-.909.143-1.823.22-2.732.01-.112.026-.225.046-.332a.674.674,0,0,1,.761-.608.643.643,0,0,1,.725.613c.072.506.1,1.021.138,1.532.128,1.471.255,2.936.383,4.407A.656.656,0,0,1,169.8,64.005Z" transform="translate(-158.706 -54.374)"/>
  </g>
</svg>
