<svg xmlns="http://www.w3.org/2000/svg" viewBox="1839.602 932.223 25.415 25.413">
  <defs>
    <style>
      .cls-1 {
        fill: #ff4f00;
      }
    </style>
  </defs>
  <g id="Group_199" data-name="Group 199" transform="translate(1839.602 932.223)">
    <g id="Group_205" data-name="Group 205" transform="translate(0 0)">
      <path id="Path_410" data-name="Path 410" class="cls-1" d="M2.95,78.632c-.118-.017-.236-.028-.349-.051A3.167,3.167,0,0,1,.049,76.114a3.01,3.01,0,0,1-.067-.635c-.011-.686-.006-1.372-.006-2.057V59.6A3.117,3.117,0,0,1,.988,57.249a3.038,3.038,0,0,1,1.782-.826,3.817,3.817,0,0,1,.438-.022H16.581c.006.006.006.011.011.017-.1.09-.191.185-.287.275l-2.833,2.833a.165.165,0,0,1-.124.051H3.158v15.88h15.88V65.27a.174.174,0,0,1,.056-.135c1.023-1.017,2.04-2.04,3.058-3.058a.676.676,0,0,1,.062-.056V75.456a3.175,3.175,0,0,1-1.939,2.934,3.118,3.118,0,0,1-.984.242.2.2,0,0,0-.056.011Q11.1,78.626,2.95,78.632Z" transform="translate(0.025 -53.23)"/>
      <path id="Path_411" data-name="Path 411" class="cls-1" d="M376.974,3.373c-.056.051-.112.107-.169.157l-.916.916-.028.028q-1.686-1.686-3.361-3.356c.365-.371.736-.742,1.113-1.119.011.011.034.028.051.045l3.283,3.283.028.028Z" transform="translate(-351.56)"/>
      <path id="Path_412" data-name="Path 412" class="cls-1" d="M136.05,93.64l-3.35-3.35q5.051-5.042,10.1-10.09l3.345,3.345Z" transform="translate(-125.239 -75.692)"/>
      <path id="Path_413" data-name="Path 413" class="cls-1" d="M333.613,40c1.113,1.113,2.237,2.232,3.35,3.35-.371.371-.742.742-1.113,1.107l-3.35-3.35C332.871,40.748,333.242,40.377,333.613,40Z" transform="translate(-313.808 -37.752)"/>
      <path id="Path_414" data-name="Path 414" class="cls-1" d="M116.248,286.048H113.1V282.9Q114.677,284.468,116.248,286.048Z" transform="translate(-106.741 -266.998)"/>
    </g>
  </g>
</svg>
