<svg xmlns="http://www.w3.org/2000/svg" viewBox="1839.602 752.717 21.61 32.171">
  <defs>
    <style>
      .cls-1 {
        fill: #ff4f00;
      }
    </style>
  </defs>
  <g id="Group_196" data-name="Group 196" transform="translate(1839.602 752.717)">
    <path id="Path_98" data-name="Path 98" class="cls-1" d="M5.169,2.58A2.7,2.7,0,0,1,2.61,5.208,2.69,2.69,0,0,1,0,2.481,2.552,2.552,0,0,1,2.659,0,2.51,2.51,0,0,1,5.169,2.58Z" transform="translate(8.187 7.624)"/>
    <path id="Path_391" data-name="Path 391" class="cls-1" d="M10.649,32.171C6.466,26.816,2.676,21.361.61,14.865-1.605,7.923,2.43.882,9.222.088,17.194-.854,23.1,5.89,21.279,13.774,20.048,18.832,14.586,28.4,10.649,32.171Zm.2-16.661a5.3,5.3,0,0,0,5.266-5.455A5.34,5.34,0,0,0,5.432,10.2,5.292,5.292,0,0,0,10.846,15.51Z" transform="translate(0 0)"/>
  </g>
</svg>
