<svg id="Capa_1" data-name="Capa 1" xmlns="http://www.w3.org/2000/svg" viewBox="0 0 23.28 35.29"><defs><style>.cls-1{fill:#ff4f00;}</style></defs><title>dir-e2</title><path id="Path_98" data-name="Path 98" class="cls-1" d="M13.39,10a2.7,2.7,0,0,1-2.56,2.63A2.69,2.69,0,0,1,8.22,9.95a2.55,2.55,0,0,1,2.62-2.48h0A2.51,2.51,0,0,1,13.39,10S13.39,10,13.39,10Z" transform="translate(0 0)"/><path class="cls-1" d="M19.81,17.89a26.39,26.39,0,0,0,1.47-4.11C23.1,5.89,17.19-.85,9.22.09,2.43.88-1.6,7.92.61,14.86A43.6,43.6,0,0,0,5.73,25.35C9.52,23.27,15.87,19.94,19.81,17.89ZM10.7,4.79a5.34,5.34,0,0,1,5.41,5.27s0,.08,0,.12a5.3,5.3,0,0,1-5.27,5.33H10.7a5.36,5.36,0,0,1,0-10.73Z" transform="translate(0 0)"/><g id="Group_201" data-name="Group 201"><path id="Path_392" data-name="Path 392" class="cls-1" d="M6.34,27.67a1.32,1.32,0,0,1,.55-.51l4.94-2.59c3.49-1.83,7-3.67,10.44-5.5a2.75,2.75,0,0,1,.47-.19.4.4,0,0,1,.53.42,3.5,3.5,0,0,1-.07.49L22,24.42c-.81,2.93-1.59,5.86-2.4,8.8a.39.39,0,0,1,0,.11c-.14,0-.25-.11-.37-.16l-5.66-2.29a1.32,1.32,0,0,1-.49-.3.74.74,0,0,1,0-1,3.1,3.1,0,0,1,.25-.32c1.45-1.52,2.88-3.07,4.33-4.62l2.56-2.79a1.28,1.28,0,0,0,.14-.18l0,0-.23.14-3.37,2.63-3.74,3c-.55.44-1.09.88-1.64,1.29a2.45,2.45,0,0,1-2.47.37c-.62-.23-1.22-.48-1.85-.72a.91.91,0,0,1-.58-.51Z" transform="translate(0 0)"/><path id="Path_393" data-name="Path 393" class="cls-1" d="M12.3,35.29c-.46-1.15-.92-2.26-1.36-3.4a1.92,1.92,0,0,1-.14-.49c0-.32.11-.49.44-.46a.51.51,0,0,1,.18,0c.6.25,1.22.46,1.82.74A1,1,0,0,1,13.76,33l-.08.14C13.25,33.89,12.79,34.6,12.3,35.29Z" transform="translate(0 0)"/></g></svg>