<svg xmlns="http://www.w3.org/2000/svg" viewBox="39.493 566.007 13.293 19.79">
  <defs>
    <style>
      .cls-1 {
        opacity: 1;
      }

      .cls-2 {
        fill: #fff;
      }
    </style>
  </defs>
  <g id="Group_7" data-name="Group 7" class="cls-1" transform="translate(39.493 566.007)">
    <path id="Path_98" data-name="Path 98" class="cls-2" d="M3.179,1.587A1.658,1.658,0,0,1,1.605,3.2,1.655,1.655,0,0,1,0,1.526,1.57,1.57,0,0,1,1.636,0,1.544,1.544,0,0,1,3.179,1.587Z" transform="translate(5.036 4.69)"/>
    <path id="Path_391" data-name="Path 391" class="cls-2" d="M6.55,19.79C3.977,16.5,1.646,13.14.375,9.144-.987,4.874,1.5.542,5.673.054a6.7,6.7,0,0,1,7.417,8.419A31.315,31.315,0,0,1,6.55,19.79ZM6.672,9.541A3.257,3.257,0,0,0,9.911,6.185a3.285,3.285,0,0,0-6.569.092A3.255,3.255,0,0,0,6.672,9.541Z" transform="translate(0 0)"/>
  </g>
</svg>
