<svg xmlns="http://www.w3.org/2000/svg" viewBox="37.859 500.717 16.977 16.461">
  <defs>
    <style>
      .cls-1 {
        opacity: 1;
      }

      .cls-2 {
        fill: #fff;
      }
    </style>
  </defs>
  <g id="Group_8" data-name="Group 8" class="cls-1" transform="translate(37.859 500.717)">
    <path id="Path_392" data-name="Path 392" class="cls-2" d="M0,8.849a1.32,1.32,0,0,1,.556-.51C2.2,7.482,3.868,6.6,5.512,5.745c3.5-1.83,6.972-3.683,10.469-5.512a2.761,2.761,0,0,1,.463-.185.4.4,0,0,1,.533.417,3.514,3.514,0,0,1-.069.486c-.417,1.552-.834,3.08-1.251,4.632-.811,2.942-1.6,5.883-2.409,8.825a.391.391,0,0,1-.046.116c-.139-.046-.255-.116-.371-.162-1.9-.764-3.8-1.529-5.675-2.293a1.323,1.323,0,0,1-.486-.3.742.742,0,0,1-.046-1,3.114,3.114,0,0,1,.255-.324c1.459-1.529,2.9-3.08,4.354-4.632.857-.926,1.714-1.876,2.571-2.8a1.285,1.285,0,0,0,.139-.185L13.92,2.8c-.069.046-.162.093-.232.139-1.135.88-2.247,1.76-3.382,2.64L6.555,8.571c-.556.44-1.089.88-1.644,1.3a2.454,2.454,0,0,1-2.478.371C1.807,10.007,1.2,9.752.579,9.52A.909.909,0,0,1,0,9.011Z" transform="translate(0 -0.031)"/>
    <path id="Path_393" data-name="Path 393" class="cls-2" d="M20.78,56.647c-.463-1.158-.926-2.27-1.367-3.4a1.923,1.923,0,0,1-.139-.486c-.046-.324.116-.486.44-.463a.51.51,0,0,1,.185.023c.6.255,1.228.463,1.83.741a.969.969,0,0,1,.44,1.413C21.729,55.234,21.266,55.952,20.78,56.647Z" transform="translate(-14.804 -40.187)"/>
  </g>
</svg>
