<svg xmlns="http://www.w3.org/2000/svg" viewBox="39.463 786.231 19.681 19.674">
  <defs>
    <style>
      .cls-1 {
        opacity: 1;
      }

      .cls-2 {
        fill: #fdfefe;
      }
    </style>
  </defs>
  <g id="Group_14" data-name="Group 14" class="cls-1" transform="translate(39.463 786.231)">
    <path id="Path_400" data-name="Path 400" class="cls-2" d="M7.316,11.2a1.621,1.621,0,0,1-1.059-.893,6.876,6.876,0,0,1-.266-.719.758.758,0,0,0-.906-.529.808.808,0,0,0-.674.805,2.406,2.406,0,0,0,.746,1.645,3.227,3.227,0,0,0,1.975.936c.191.025.191.023.191.217v.531l-.172-.127c-.438-.332-.883-.654-1.342-.955a1.032,1.032,0,0,0-1.4.352.9.9,0,0,0,.023.838,4.222,4.222,0,0,0,.512.736c.291.379.576.762.865,1.143a.151.151,0,0,1,.012.037,4.422,4.422,0,0,1-.621-.18A7.583,7.583,0,0,1,.165,9.363,7.637,7.637,0,0,1,2.894,1.7,7.566,7.566,0,0,1,7.226.027a7.524,7.524,0,0,1,3.127.451,7.618,7.618,0,0,1,4.186,3.647,7.266,7.266,0,0,1,.887,3.885A7.6,7.6,0,0,1,11.5,14.467a7.049,7.049,0,0,1-1.666.7.137.137,0,0,1-.148-.031c-.543-.473-1.092-.938-1.658-1.385-.053-.041-.082-.068-.018-.129a.343.343,0,0,0,.088-.254c0-.27,0-.539,0-.809,0-.072.02-.09.088-.1a3.744,3.744,0,0,0,1.442-.426A2.754,2.754,0,0,0,10.86,8.744,2.481,2.481,0,0,0,9.4,7.26a9.947,9.947,0,0,0-1.207-.383c-.07-.018-.1-.045-.094-.123,0-.809,0-1.619,0-2.428,0-.09.023-.1.1-.07a1.429,1.429,0,0,1,.932,1.01.85.85,0,0,0,.387.578.774.774,0,0,0,.869-.043.742.742,0,0,0,.3-.848A2.463,2.463,0,0,0,9.133,3.209a3.471,3.471,0,0,0-.947-.2C8.117,3,8.1,2.98,8.1,2.91c0-.27,0-.539,0-.809a.387.387,0,0,0-.721-.209.431.431,0,0,0-.053.225c0,.266,0,.533,0,.8,0,.064-.016.084-.082.092a3.442,3.442,0,0,0-1.508.477A2.242,2.242,0,0,0,4.675,5.209a2.557,2.557,0,0,0,.3,1.662A2.5,2.5,0,0,0,6.228,7.879a9.02,9.02,0,0,0,1.024.352c.053.014.076.033.076.094q0,1.414,0,2.828C7.324,11.168,7.32,11.178,7.316,11.2Z" transform="translate(0.024 -0.011)"/>
    <path id="Path_401" data-name="Path 401" class="cls-2" d="M244.171,423.891a1.206,1.206,0,0,1-.848-.4q-1.349-1.457-2.617-2.987c-.69-.836-1.367-1.684-1.994-2.572-.141-.2-.289-.4-.434-.592a.382.382,0,0,1-.049-.078.352.352,0,0,1,.01-.4.47.47,0,0,1,.471-.121,1.066,1.066,0,0,1,.461.254c.426.313.861.615,1.277.94.766.6,1.524,1.219,2.256,1.865.438.385.887.758,1.309,1.16.049.047.076.055.127-.006.381-.451.758-.906,1.154-1.344.5-.549,1.014-1.08,1.514-1.625.8-.873,1.67-1.678,2.516-2.506.908-.887,1.85-1.74,2.774-2.608a.683.683,0,0,1,.506-.2.363.363,0,0,1,.367.354.987.987,0,0,1-.189.645q-.824,1.165-1.66,2.324c-.549.756-1.113,1.5-1.664,2.258-.512.7-1.08,1.363-1.623,2.043-.43.539-.871,1.068-1.334,1.578-.49.541-.969,1.092-1.461,1.633A1.115,1.115,0,0,1,244.171,423.891Z" transform="translate(-233.293 -404.217)"/>
    <path id="Path_402" data-name="Path 402" class="cls-2" d="M396.2,415.425c0-.43,0-.861,0-1.291,0-.08.016-.09.09-.064a4.091,4.091,0,0,1,.7.313,1.135,1.135,0,0,1,.527,1.367,1.411,1.411,0,0,1-1.059,1.008c-.254.078-.254.074-.254-.188,0-.379,0-.762,0-1.145Z" transform="translate(-388.081 -405.574)"/>
    <path id="Path_403" data-name="Path 403" class="cls-2" d="M305.3,206.74c0,.373,0,.744,0,1.117,0,.072-.01.088-.084.059a3.376,3.376,0,0,1-.582-.3.9.9,0,0,1-.432-.662,1.125,1.125,0,0,1,.184-.906,1.579,1.579,0,0,1,.815-.5c.074-.02.1-.012.1.074C305.293,206,305.3,206.367,305.3,206.74Z" transform="translate(-297.948 -201.33)"/>
  </g>
</svg>
