<svg xmlns="http://www.w3.org/2000/svg" viewBox="34.468 863.396 27.115 24.541">
  <defs>
    <style>
      .cls-1 {
        opacity: 1;
      }

      .cls-2 {
        fill: #fdfefe;
      }
    </style>
  </defs>
  <g id="Group_15" data-name="Group 15" class="cls-1" transform="translate(34.468 863.396)">
    <path id="Path_404" data-name="Path 404" class="cls-2" d="M177.418,137.344h-20.3a2.02,2.02,0,0,1,.256-1.087,6.166,6.166,0,0,1,1.927-2.1,16.458,16.458,0,0,1,4.409-2.3,9.088,9.088,0,0,1,.931-.269.511.511,0,0,0,.424-.381c.078-.32.134-.645.182-.974a.328.328,0,0,0-.1-.221,7.009,7.009,0,0,1-1.667-3.131c-.013-.061-.061-.143-.108-.156a.971.971,0,0,1-.637-.6,2.157,2.157,0,0,1-.087-1.819c.017-.039.026-.091.056-.113.247-.2.2-.459.173-.732a7.857,7.857,0,0,1,.108-2.624,3.556,3.556,0,0,1,3.187-2.832,6.278,6.278,0,0,1,3.036.217,3.309,3.309,0,0,1,2.109,2.022,6.317,6.317,0,0,1,.32,3c0,.052-.009.1-.017.152a1.1,1.1,0,0,0,.173.84,2.1,2.1,0,0,1-.277,2.265.541.541,0,0,1-.247.165c-.212.039-.243.178-.286.359a6.4,6.4,0,0,1-1.018,2.2c-.191.269-.411.52-.615.78-.039.048-.1.108-.1.16a2.386,2.386,0,0,0,.264,1.187.536.536,0,0,0,.277.212,15.825,15.825,0,0,1,4.331,1.871,9.948,9.948,0,0,1,2.269,1.784,3.729,3.729,0,0,1,.983,1.75.328.328,0,0,0,.039.078Z" transform="translate(-150.303 -112.803)"/>
    <path id="Path_405" data-name="Path 405" class="cls-2" d="M-.1,18.965c.126-.3.23-.619.381-.909a5.372,5.372,0,0,1,1.446-1.646,14.092,14.092,0,0,1,3.239-1.971c.676-.3,1.382-.541,2.074-.806a1.033,1.033,0,0,1,.29-.078.631.631,0,0,0,.611-.567,4.876,4.876,0,0,0,.117-.788.491.491,0,0,0-.139-.294A7.2,7.2,0,0,1,6.366,9.095a.887.887,0,0,1-.048-.212c-.009-.134-.074-.191-.2-.26a1.326,1.326,0,0,1-.476-.411,2.138,2.138,0,0,1-.273-1.663,3.2,3.2,0,0,1,.273-.58A.547.547,0,0,0,5.716,5.7a8.184,8.184,0,0,1,.108-3.01A3.376,3.376,0,0,1,8.007.2a6.045,6.045,0,0,1,4.158.013,3.231,3.231,0,0,1,2.066,2.226c.091.316.143.645.217.966.03.13-.013.195-.139.238a5.307,5.307,0,0,0-1.494.806,5.085,5.085,0,0,0-1.741,2.5,8.871,8.871,0,0,0-.329,3.421,1.375,1.375,0,0,1-.16.528,3.685,3.685,0,0,0-.061,2.256,3.365,3.365,0,0,0,.974,1.676.528.528,0,0,1,.13.217,8.675,8.675,0,0,0,1.052,2.1c.017.026.026.065.052.117-.221.087-.433.173-.645.256A20.359,20.359,0,0,0,8.756,19.2a.754.754,0,0,1-.368.082q-4.106.007-8.207,0c-.1,0-.186.009-.282.013C-.1,19.194-.1,19.077-.1,18.965Z" transform="translate(0.1 0.163)"/>
  </g>
</svg>
