<svg xmlns="http://www.w3.org/2000/svg" viewBox="39.463 931.666 17.69 19.184">
  <defs>
    <style>
      .cls-1 {
        opacity: 1;
      }

      .cls-2 {
        fill: #fdfefe;
      }
    </style>
  </defs>
  <g id="Group_16" data-name="Group 16" class="cls-1" transform="translate(39.463 931.666)">
    <path id="Path_406" data-name="Path 406" class="cls-2" d="M8.284,113.051c-.343-.049-.686-.092-1.026-.15A8.4,8.4,0,0,1,5,112.159,8.943,8.943,0,0,1,3.179,111,8.5,8.5,0,0,1,1.6,109.285a9.089,9.089,0,0,1-1.327-2.84,8.816,8.816,0,0,1-.245-3.128,8.714,8.714,0,0,1,1.425-4.011,8.608,8.608,0,0,1,2.068-2.172,1.51,1.51,0,0,1,1.842.046,1.484,1.484,0,0,1,.009,2.228,7.625,7.625,0,0,0-1.161,1.128,5.9,5.9,0,0,0-.552,6.487,5.716,5.716,0,0,0,1.722,1.958A5.964,5.964,0,0,0,7.751,110a5.892,5.892,0,0,0,5.806-2.283,5.893,5.893,0,0,0,.561-6.14,6.665,6.665,0,0,0-1.8-2.151,1.465,1.465,0,0,1,.092-2.329,1.483,1.483,0,0,1,1.719.031A8.822,8.822,0,0,1,16.1,99.158a8.7,8.7,0,0,1,1.259,2.687,8.925,8.925,0,0,1,.248,3.429,8.811,8.811,0,0,1-1.232,3.527,8.423,8.423,0,0,1-1.759,2.084,9.167,9.167,0,0,1-3.26,1.793,8.692,8.692,0,0,1-1.817.346,1.385,1.385,0,0,0-.162.031C9.019,113.051,8.652,113.051,8.284,113.051Z" transform="translate(0.014 -93.869)"/>
    <path id="Path_407" data-name="Path 407" class="cls-2" d="M242.191,0a1.847,1.847,0,0,1,.833.457,1.483,1.483,0,0,1,.426,1.066q0,3.645,0,7.29a1.488,1.488,0,0,1-1.088,1.459,1.468,1.468,0,0,1-1.851-1.321,2.757,2.757,0,0,1-.009-.276c0-2.338.012-4.676-.006-7.014A1.565,1.565,0,0,1,241.737.018c.009,0,.015-.012.025-.018Z" transform="translate(-233.127)"/>
  </g>
</svg>
