<svg xmlns="http://www.w3.org/2000/svg" viewBox="1049.858 180.901 27.829 27.829">
  <defs>
    <style>
      .cls-1 {
        fill: #fdfefe;
      }
    </style>
  </defs>
  <path id="Path_2" data-name="Path 2" class="cls-1" d="M12.693,0h2.635a1.155,1.155,0,0,0,.321.156.7.7,0,0,1,.618.708c.041.313.082.618.132.931A3.058,3.058,0,0,0,18.688,4.1,3.309,3.309,0,0,0,21.6,3.228.823.823,0,0,1,22.839,3.2,22.347,22.347,0,0,1,24.61,4.958c.675.766.651.807.008,1.581a3.2,3.2,0,0,0-.8,1.845,3.132,3.132,0,0,0,3.039,3.327c.6.041.758.148.931.717a.867.867,0,0,0,.14.239V15.22a1.05,1.05,0,0,0-.124.206c-.239.667-.3.684-.988.758a4.674,4.674,0,0,0-1.334.338,2.771,2.771,0,0,0-1.655,2.1,3.015,3.015,0,0,0,.889,2.891.79.79,0,0,1,.082,1.12c-.749.774-1.524,1.524-2.331,2.24-.132.115-.486.049-.708-.008-.173-.049-.3-.231-.453-.346a3.067,3.067,0,0,0-5.1,2.1c-.008.585-.124,1-.766,1.1-.041.008-.074.074-.107.115H12.7c-.058-.041-.107-.107-.165-.115-.667-.074-.758-.519-.807-1.079a3.964,3.964,0,0,0-.346-1.293,2.765,2.765,0,0,0-2.2-1.631,3.14,3.14,0,0,0-2.8.931.8.8,0,0,1-1.054.1,9.419,9.419,0,0,1-2.281-2.4.845.845,0,0,1,.016-.6,1.51,1.51,0,0,1,.313-.42,3,3,0,0,0,.659-3.113,3.048,3.048,0,0,0-2.553-2.075C.849,16.06.314,16,.166,15.269c0-.016-.041-.033-.066-.041V12.593a1.414,1.414,0,0,0,.165-.362c.074-.4.329-.519.692-.585a8.443,8.443,0,0,0,1.5-.354,2.668,2.668,0,0,0,1.73-2.026,2.992,2.992,0,0,0-.824-2.907.838.838,0,0,1-.033-1.309c.609-.642,1.235-1.277,1.9-1.87.609-.544.749-.494,1.4.041a3.1,3.1,0,0,0,3,.725,3.076,3.076,0,0,0,2.2-2.751c.025-.585.132-1,.774-1.1C12.627.107,12.66.041,12.693,0ZM14.06,9.323A4.641,4.641,0,1,0,18.7,14.017,4.582,4.582,0,0,0,14.06,9.323Z" transform="translate(1049.758 180.901)"/>
</svg>
