<svg xmlns="http://www.w3.org/2000/svg" viewBox="39.462 644.659 13.308 24.701">
  <defs>
    <style>
      .cls-1 {
        opacity: 1;
      }

      .cls-2 {
        fill: #fdfefe;
      }
    </style>
  </defs>
  <g id="Group_9" data-name="Group 9" class="cls-1" transform="translate(39.462 644.659)">
    <path id="Path_394" data-name="Path 394" class="cls-2" d="M4.54,158.2c.669.669,1.329,1.338,1.989,1.989a1.365,1.365,0,0,1,.417,1.381,1.338,1.338,0,0,1-2.215.643c-1.451-1.407-2.884-2.841-4.309-4.283a1.626,1.626,0,0,1,.017-2.311c1.4-1.407,2.8-2.806,4.213-4.2a1.334,1.334,0,0,1,1.937-.017,1.315,1.315,0,0,1-.026,1.9c-.669.678-1.355,1.338-2.05,2.015.165.174.33.113.469.113h6.811a1.316,1.316,0,0,1,1.329.86,1.3,1.3,0,0,1-.3,1.442,1.412,1.412,0,0,1-1.069.391H4.983A.659.659,0,0,0,4.54,158.2Z" transform="translate(0.051 -137.883)"/>
    <path id="Path_395" data-name="Path 395" class="cls-2" d="M9.135,7.143H1.786A1.34,1.34,0,0,1,.379,5.467,1.32,1.32,0,0,1,1.76,4.459H9.092c-.156-.165-.252-.278-.356-.382C8.162,3.5,7.58,2.948,7.016,2.366A1.32,1.32,0,0,1,6.972.428,1.326,1.326,0,0,1,8.91.437c1.416,1.39,2.823,2.78,4.213,4.187A1.631,1.631,0,0,1,13.079,7Q11.02,9.055,8.962,11.1a1.344,1.344,0,0,1-2,.069A1.326,1.326,0,0,1,7.051,9.2C7.711,8.542,8.38,7.89,9.135,7.143Z" transform="translate(-0.305 -0.012)"/>
  </g>
</svg>
