<svg xmlns="http://www.w3.org/2000/svg" viewBox="328.453 425.794 25.564 39.657">
  <defs>
    <style>
      .cls-1 {
        fill: #ff4f00;
      }
    </style>
  </defs>
  <path id="Path_1" data-name="Path 1" class="cls-1" d="M15.51,39.657h-5.7c0-.963-.013-1.919.006-2.882.006-.3-.1-.38-.367-.418A13.57,13.57,0,0,1,4.12,34.469a8.914,8.914,0,0,1-2.914-2.939A9.452,9.452,0,0,1-.105,26.765c-.006-.272.07-.336.329-.336q2.708.019,5.416,0c.291,0,.386.089.431.38a4.75,4.75,0,0,0,2.1,3.516A4.95,4.95,0,0,0,9.8,31.01V26.487c0-1.185-.006-2.363.006-3.548,0-.222-.057-.31-.279-.355-.38-.076-.76-.184-1.134-.291a16.771,16.771,0,0,1-4.656-1.761A6.767,6.767,0,0,1,1.06,17.409a9.325,9.325,0,0,1-.672-3.326A8.985,8.985,0,0,1,2.4,7.849,9.921,9.921,0,0,1,8.1,4.5c.564-.127,1.134-.222,1.71-.329V0h5.7c0,1.349.006,2.705-.006,4.054,0,.241.07.329.3.374a12.1,12.1,0,0,1,3.028.982,10.149,10.149,0,0,1,3.541,2.648,9.065,9.065,0,0,1,2,4.84c.044.361.057.722.089,1.071a.434.434,0,0,1-.114.032q-2.946,0-5.892.006c-.2,0-.215-.1-.228-.253a4.151,4.151,0,0,0-1.786-3.206c-.285-.2-.589-.361-.919-.557v7.8c.215.051.418.108.627.152a20.148,20.148,0,0,1,5.41,1.805,6.425,6.425,0,0,1,3.212,3.484,9.339,9.339,0,0,1-4.745,12A14.94,14.94,0,0,1,15.8,36.464c-.228.038-.291.114-.285.342C15.517,37.756,15.51,38.707,15.51,39.657Zm.019-8.552c.158-.032.291-.044.424-.082a3.964,3.964,0,0,0,3.066-2.452,2.966,2.966,0,0,0-.481-3.091,4.031,4.031,0,0,0-1.577-1.026c-.462-.19-.944-.342-1.438-.519C15.529,26.36,15.529,28.716,15.529,31.1ZM9.8,9.61a6.764,6.764,0,0,0-2.217.988,3.227,3.227,0,0,0-.792,4.194,5.272,5.272,0,0,0,3,1.641C9.8,14.14,9.8,11.9,9.8,9.61Z" transform="translate(328.558 425.794)"/>
</svg>
