<svg xmlns="http://www.w3.org/2000/svg" viewBox="7043.981 946.501 128.905 141.733">
  <defs>
    <style>
      .cls-1 {
        fill: #192e60;
      }

      .cls-2 {
        fill: #fff;
      }

      .cls-3 {
        fill: #dd571b;
      }
    </style>
  </defs>
  <g id="ICONO_4-05" data-name="ICONO 4-05" transform="translate(7043.981 946.501)">
    <path id="Path_43" data-name="Path 43" class="cls-1" d="M108.559,0H20.347A20.334,20.334,0,0,0,0,20.347v88.275a20.32,20.32,0,0,0,20.347,20.284H49.1c.126.19.253.316.379.506l11.311,11.311a3.453,3.453,0,0,0,2.4,1.011,3.3,3.3,0,0,0,2.4-1.011L76.9,129.411a3.5,3.5,0,0,0,.379-.506h31.279a20.374,20.374,0,0,0,20.347-20.347V20.347A20.334,20.334,0,0,0,108.559,0Zm17.187,108.559a17.2,17.2,0,0,1-17.187,17.187H76.4l-.063.063-1.643,1.011a.2.2,0,0,1,.063.126s0,.126-.063.126L63.378,138.384c-.126.126-.19.126-.316,0l-7.709-7.709-3.6-3.6a.2.2,0,0,1-.063-.126s0-.126.063-.126l-.569-1.074h-30.9A17.192,17.192,0,0,1,3.159,108.559V20.347A17.2,17.2,0,0,1,20.347,3.159h88.275a17.2,17.2,0,0,1,17.187,17.187v88.212Z"/>
    <g id="Group_17" data-name="Group 17" transform="translate(19.018 19.281)">
      <g id="Group_12" data-name="Group 12">
        <path id="Path_44" data-name="Path 44" class="cls-1" d="M90.36,78.067A12.815,12.815,0,0,0,78.8,91.274c.19,6.635,6.635,12.511,13.333,12.385h.316c6.951-.7,11.753-5.245,11.248-12.448C103.125,84.386,98.006,77.309,90.36,78.067ZM99.586,97.15c-2.4-5.624-4.929-11.121-7.772-16.492A8.2,8.2,0,0,1,93.9,81.1c2.464,4.3,4.17,8.973,6.824,13.206.063.063.063.126.126.126A10.786,10.786,0,0,1,99.586,97.15Zm1.264-7.583a15.651,15.651,0,0,1,.19,1.706c-1.517-2.78-2.78-5.624-4.17-8.467A11,11,0,0,1,100.85,89.568ZM89.665,80.721c0,.063.063.063,0,0,3.1,5.877,5.877,11.816,8.467,17.882,0,.063.063.063.063.126a10.112,10.112,0,0,1-1.58,1.137c-3.033-6.193-6.066-12.322-9.1-18.514a5.691,5.691,0,0,1,1.769-.506A2.633,2.633,0,0,0,89.665,80.721Zm-.758,19.841c-2.275-4.613-4.55-9.226-6.824-13.775a7.1,7.1,0,0,1,1.011-1.769c2.4,5.5,5.118,10.868,8.025,16.05A8.663,8.663,0,0,1,88.907,100.563Zm4.3.442a191.31,191.31,0,0,1-8.846-17.63,9.763,9.763,0,0,1,1.517-1.2c3.033,6.129,6,12.259,9.036,18.388A4.847,4.847,0,0,1,93.2,101ZM81.324,91.969a10.725,10.725,0,0,1-.063-2.464c1.58,3.223,3.159,6.382,4.739,9.6A11.747,11.747,0,0,1,81.324,91.969Z" transform="translate(-48.023 -47.998)"/>
        <path id="Path_45" data-name="Path 45" class="cls-1" d="M100.332,54.278c-9.6-8.657-26.223-9.6-37.281-3.539C52.119,56.679,43.9,71.213,46.432,83.724a49.373,49.373,0,0,0,3.475,11.121c1.706,3.6,4.676,6.445,7.519,9.1a32.242,32.242,0,0,0,21.484,8.594c13.649-.506,26.539-7.962,31.721-20.916C115.75,78.732,110.442,63.377,100.332,54.278Zm.885,4.676a43.1,43.1,0,0,1,7.9,14.344l-8.91-15.544C100.522,58.133,100.9,58.512,101.217,58.954Zm7.9,29.383c-2.464-4.3-4.676-8.657-7.2-12.891a24.732,24.732,0,0,0-6.129-11.374c-2.338-4.423-4.613-8.783-7.14-13.08.7.19,1.327.442,2.022.7C97.8,62.682,103.3,74.562,109.621,86.062A9.814,9.814,0,0,1,109.115,88.337Zm-1.58,4.107c-1.706-3.033-3.6-5.94-5.245-8.973a10.332,10.332,0,0,0,.126-1.39,15.973,15.973,0,0,0,.063-1.769c1.9,3.475,3.728,7.014,5.75,10.426A6.472,6.472,0,0,1,107.536,92.444Zm-1.959,3.349c-1.453-2.528-2.97-4.929-4.613-7.33a13.037,13.037,0,0,0,.758-2.212c1.58,2.717,3.223,5.371,4.739,8.088A11.127,11.127,0,0,1,105.577,95.793ZM78.406,99.774c-5.245-.379-10.3-2.022-14.217-5.687-4.107-3.791-5.624-10.3-5.434-15.734C59.2,66.6,71.076,57.248,82.7,59.4c10.047,1.832,17.63,11.627,17.251,21.8C99.574,92.76,89.148,99.964,78.406,99.774Zm19.02,4.17c-1.264-2.085-2.528-4.17-3.855-6.256.569-.379,1.074-.821,1.58-1.2a65.25,65.25,0,0,1,3.981,6.256C98.563,103.123,97.994,103.565,97.425,103.945Zm-3.539,2.148c-1.264-2.085-2.591-4.17-3.855-6.256a19.407,19.407,0,0,0,1.959-1.074c1.327,2.085,2.591,4.17,3.855,6.256C95.151,105.4,94.519,105.714,93.887,106.093ZM90.1,107.736q-1.9-3.317-3.981-6.445a12.368,12.368,0,0,0,2.148-.758c1.264,2.148,2.654,4.234,3.918,6.319A14.717,14.717,0,0,1,90.1,107.736Zm-3.539,1.137c-1.453-2.275-2.843-4.55-4.3-6.761a15.793,15.793,0,0,0,1.832-.316c1.39,2.148,2.78,4.36,4.107,6.635C87.694,108.557,87.126,108.747,86.557,108.873Zm-3.918.821a81.049,81.049,0,0,1-4.676-7.393,1.075,1.075,0,0,1,.442.063,15.4,15.4,0,0,0,1.706-.063c1.517,2.338,2.97,4.676,4.486,7.077C83.966,109.442,83.334,109.568,82.639,109.695Zm-3.791.316h-.442c-1.769-2.78-3.412-5.561-5.055-8.467.758.19,1.453.316,2.212.442a91.243,91.243,0,0,0,4.866,7.9A11.435,11.435,0,0,1,78.848,110.011ZM67.411,107.42c-6.129-11.311-12.2-22.685-18.325-34,.126-.632.316-1.2.506-1.832l7.2,13.08c.821,4.234,2.591,8.4,5.687,11.248a9.239,9.239,0,0,0,1.2,1.011c2.338,3.981,4.739,7.9,7.2,11.816A32.833,32.833,0,0,1,67.411,107.42Zm-4.8-2.717c-5.118-8.531-9.857-17.061-14.218-25.971a3.6,3.6,0,0,1,.063-.821c.063-.506.063-1.011.126-1.517,5.308,9.794,10.553,19.652,15.86,29.446C63.809,105.461,63.177,105.082,62.608,104.7Zm-11.5-37.218c.632,1.137,1.327,2.212,2.022,3.286,1.2,2.022,2.275,4.044,3.286,6.129a12.272,12.272,0,0,0-.126,1.517V79.87c-1.959-3.539-3.918-7.077-5.877-10.679C50.6,68.622,50.855,68.053,51.108,67.485ZM53.636,63a77.492,77.492,0,0,1,4.234,8.215,18.676,18.676,0,0,0-.885,2.654c-.569-1.074-1.137-2.212-1.769-3.286-.948-1.706-2.338-3.349-2.97-5.245A17.527,17.527,0,0,1,53.636,63Zm2.528-3.349a78.807,78.807,0,0,1,4.17,7.014c-.506.758-1.011,1.517-1.453,2.338-1.2-2.591-2.591-5.181-4.044-7.646Zm2.843-2.78c1.264,2.275,2.591,4.55,3.855,6.824-.442.442-.821.885-1.2,1.327a66.4,66.4,0,0,0-4.107-6.761A15.108,15.108,0,0,1,59.007,56.869ZM62.166,54.4c1.2,2.275,2.464,4.486,3.665,6.761a15.377,15.377,0,0,0-1.58,1.264c-1.264-2.275-2.528-4.486-3.791-6.761A14.805,14.805,0,0,1,62.166,54.4Zm6.761-3.475c1.137,2.338,2.338,4.55,3.665,6.761-.569.19-1.2.379-1.769.632-1.2-2.212-2.4-4.486-3.665-6.7C67.79,51.371,68.359,51.119,68.927,50.929Zm3.981-1.074a74.635,74.635,0,0,1,3.855,6.951c-.758.063-1.517.253-2.275.379C73.161,54.973,71.9,52.7,70.76,50.36,71.455,50.171,72.213,49.981,72.908,49.855Zm4.234-.506c1.264,2.528,2.654,4.992,4.107,7.33a14.648,14.648,0,0,0-2.338-.063c-1.39-2.338-2.464-4.8-3.918-7.14C75.688,49.476,76.447,49.413,77.142,49.349ZM65.515,52.509c1.2,2.212,2.4,4.423,3.6,6.572l-1.706.948c-1.2-2.275-2.464-4.423-3.665-6.7l1.706-.948A.2.2,0,0,1,65.515,52.509Zm7.835,56.744c-2.085-3.286-4.107-6.635-6.066-9.984a19.254,19.254,0,0,0,3.539,1.517c1.643,3.033,3.412,6.066,5.308,8.973-.885-.126-1.832-.253-2.654-.442C73.414,109.379,73.414,109.316,73.35,109.252ZM86.115,50.3c2.022,3.412,3.918,6.888,5.813,10.363a26.046,26.046,0,0,0-2.844-1.706c-1.9-3.033-3.6-6.129-5.5-9.162C84.409,49.918,85.23,50.108,86.115,50.3Zm7.709,2.78A15.766,15.766,0,0,1,96.035,54.4a.479.479,0,0,0,.126.253c4.55,7.835,9.036,15.734,13.586,23.569.063.19.19.253.379.379.063.758.126,1.517.126,2.275,0,.632-.063,1.327-.063,1.959C104.755,72.856,99.827,62.619,93.824,53.077Zm-12.7-3.6c1.706,2.717,3.286,5.5,4.929,8.215-.758-.253-1.517-.442-2.275-.632a78.841,78.841,0,0,1-4.486-7.709A17.852,17.852,0,0,0,81.123,49.476ZM55.974,98.953c-3.6-3.728-6.319-9.668-7.267-15.355,3.1,6.066,6.319,11.943,9.731,17.819Zm44.611,2.528a61.932,61.932,0,0,0-3.918-6.066l-.19-.19c.379-.379.758-.821,1.137-1.264,1.327,2.148,2.717,4.3,4.107,6.445C101.343,100.785,100.964,101.164,100.585,101.48Zm2.528-2.464c-1.453-2.212-2.843-4.423-4.234-6.635.442-.632.821-1.264,1.2-1.9q2.275,3.412,4.36,7.014C103.934,98,103.555,98.51,103.112,99.016Z" transform="translate(-35.941 -36.531)"/>
        <path id="Path_46" data-name="Path 46" class="cls-1" d="M115.594,63.742c-2.148-8.215-7.267-15.355-13.459-21.042C95.752,36.824,88.043,31.706,79.2,30.821c-9.352-.948-20.789.126-28.688,5.624-15.355,10.679-23.38,27.424-19.4,46.128,4.234,20.031,22.306,34.059,42.653,34,17,.126,32.353-8.72,38.924-24.644C116.352,83.141,118.058,73.157,115.594,63.742Zm-3.1,21.168c-2.591,9.036-7.2,17.124-15.1,22.432A41.909,41.909,0,0,1,73.7,114.1,40.827,40.827,0,0,1,35.407,88.323a43.135,43.135,0,0,1-1.517-26.476C36.1,54.074,40.841,48.008,46.781,42.7c3.159-2.78,6.508-5.561,10.489-7.077,4.55-1.769,9.731-2.022,14.6-2.338,9.352-.569,17.061,2.212,24.454,7.9C110.286,51.863,117.489,67.47,112.5,84.911Z" transform="translate(-30.098 -30.514)"/>
        <path id="Path_47" data-name="Path 47" class="cls-1" d="M80.9,75.432c.948-.7,0-2.4-.948-1.643a25.066,25.066,0,0,0-3.981,3.791c-.758.948.569,2.275,1.327,1.327A23.432,23.432,0,0,1,80.9,75.432Z" transform="translate(-46.9 -46.374)"/>
        <path id="Path_48" data-name="Path 48" class="cls-1" d="M81.549,78.745c-.821.885.506,2.275,1.327,1.327a10.416,10.416,0,0,1,2.717-2.212.948.948,0,0,0-.948-1.643A13.237,13.237,0,0,0,81.549,78.745Z" transform="translate(-48.943 -47.285)"/>
      </g>
      <g id="Group_13" data-name="Group 13" transform="translate(48.776 57.996)">
        <ellipse id="Ellipse_1" data-name="Ellipse 1" class="cls-2" cx="14.786" cy="14.786" rx="14.786" ry="14.786" transform="translate(1.524 2.278)"/>
        <path id="Path_49" data-name="Path 49" class="cls-3" d="M139.9,139.675c-.7-8.91-7.393-18.262-17.44-17.314A16.86,16.86,0,0,0,107.3,139.675c.253,8.72,8.72,16.366,17.44,16.24h.379C134.214,155.093,140.6,149.09,139.9,139.675Zm-5.308,7.709h0a14.28,14.28,0,0,1-1.832,2.022.062.062,0,0,0,.063.063,14.844,14.844,0,0,1-2.022,1.453h0a13.565,13.565,0,0,1-7.267,2.085,13.838,13.838,0,1,1,13.838-13.838A14.113,14.113,0,0,1,134.593,147.384Z" transform="translate(-107.289 -122.295)"/>
      </g>
      <g id="Group_14" data-name="Group 14" transform="translate(70.009 73.5)">
        <circle id="Ellipse_2" data-name="Ellipse 2" class="cls-2" cx="9.731" cy="9.731" r="9.731" transform="translate(1.649 2.129)"/>
        <path id="Path_50" data-name="Path 50" class="cls-3" d="M163.013,158.628c-.442-6.066-4.992-12.385-11.816-11.753a11.42,11.42,0,0,0-10.3,11.753c.19,5.94,5.877,11.121,11.88,11.058h.253C159.158,169.117,163.518,165.073,163.013,158.628Zm-3.539,5.245h0a13.2,13.2,0,0,1-1.264,1.39v.063a11.171,11.171,0,0,1-1.39,1.011h0a9.361,9.361,0,1,1,4.423-7.962A8.808,8.808,0,0,1,159.474,163.872Z" transform="translate(-140.891 -146.831)"/>
      </g>
      <g id="Group_15" data-name="Group 15" transform="translate(57.819 66.024)">
        <path id="Path_51" data-name="Path 51" class="cls-3" d="M130,151.871h-1.769v-2.085H127.1v2.085h-1.769v-2.085H121.6v-1.769h.821a.6.6,0,0,0,.632-.632v-7.9a.567.567,0,0,0-.632-.632H121.6v-1.769h3.728V135H127.1v2.085h1.137V135H130v2.022c0,.126,0,.19.19.19a7.349,7.349,0,0,1,1.137.253,2.841,2.841,0,0,1,1.643,1.327,2.894,2.894,0,0,1,.063,2.78,3.005,3.005,0,0,1-1.832,1.453.221.221,0,0,0-.126.063.2.2,0,0,0,.126.063,3.526,3.526,0,0,1,1.327.569,2.67,2.67,0,0,1,1.2,1.769,3.126,3.126,0,0,1-1.264,3.349,4.783,4.783,0,0,1-2.275.885.168.168,0,0,0-.19.19C130,150.544,130,151.24,130,151.871Zm-3.791-7.709v2.78a1.749,1.749,0,0,0,.063.569.231.231,0,0,0,.253.253c.442,0,.885.063,1.264.063a6.867,6.867,0,0,0,1.137-.063,1.56,1.56,0,0,0,1.011-.506,1.819,1.819,0,0,0,.569-1.327,1.578,1.578,0,0,0-1.011-1.58,3.968,3.968,0,0,0-1.2-.19h-1.959C126.276,144.1,126.213,144.1,126.213,144.162Zm0-1.9h1.453a5.42,5.42,0,0,0,1.453-.126,1.941,1.941,0,0,0,.948-.632,1.424,1.424,0,0,0-.885-2.212c-.253-.063-.569-.063-.821-.126h-2.148C126.213,140.181,126.213,141.193,126.213,142.267Z" transform="translate(-121.6 -135)"/>
      </g>
      <g id="Group_16" data-name="Group 16" transform="translate(76.586 78.914)">
        <path id="Path_52" data-name="Path 52" class="cls-3" d="M156.987,166.711h-1.2v-1.39h-.758v1.39h-1.2v-1.39H151.3v-1.2h.569c.253,0,.379-.126.379-.442v-5.245a.418.418,0,0,0-.379-.442H151.3v-1.2h2.528V155.4h1.2v1.39h.758V155.4h1.2v1.327c0,.063,0,.126.126.126a3.332,3.332,0,0,1,.758.19,2.1,2.1,0,0,1,1.074.885,1.741,1.741,0,0,1,0,1.833,2,2,0,0,1-1.2.948c-.063,0-.063,0-.126.063a.062.062,0,0,1,.063.063,2.216,2.216,0,0,1,.885.379,1.856,1.856,0,0,1,.821,1.137,2.11,2.11,0,0,1-.821,2.212,3.164,3.164,0,0,1-1.517.569.136.136,0,0,0-.126.126A11.68,11.68,0,0,1,156.987,166.711Zm-2.528-5.182v2.212a.168.168,0,0,0,.19.19h.885a3.077,3.077,0,0,0,.758-.063,1.4,1.4,0,0,0,.7-.316,1.147,1.147,0,0,0,.379-.885.974.974,0,0,0-.7-1.011,1.734,1.734,0,0,0-.821-.126h-1.39Zm0-1.264h.948a2.456,2.456,0,0,0,.948-.126,1.068,1.068,0,0,0,.632-.442.926.926,0,0,0-.569-1.453,1.749,1.749,0,0,0-.569-.063h-1.39Z" transform="translate(-151.3 -155.4)"/>
      </g>
    </g>
  </g>
</svg>
