<svg xmlns="http://www.w3.org/2000/svg" viewBox="6462.106 946.501 128.905 141.733">
  <defs>
    <style>
      .cls-1 {
        fill: #192e60;
      }

      .cls-2 {
        fill: #dd571b;
      }
    </style>
  </defs>
  <g id="ICONO_2-05" data-name="ICONO 2-05" transform="translate(6462.106 946.501)">
    <path id="Path_17" data-name="Path 17" class="cls-1" d="M127.5,107.906a1.109,1.109,0,0,0-.253-.316,49.994,49.994,0,0,0-8.215-6.888,1.454,1.454,0,0,0-1.517,0l-.948.569c-1.264-1.264-2.464-2.844-4.3-2.4a4.232,4.232,0,0,0-1.327.632c-2.844-4.107-4.044-8.4-5.5-13.143A29.612,29.612,0,0,0,98.564,75.11c-2.212-2.4-5.245-6.382-8.72-6.888A5.742,5.742,0,0,0,84.22,71c-3.412-2.085-7.646-1.074-9.226,2.528a6.41,6.41,0,0,0-8.215,2.654C60.714,70.308,55.6,63.041,48.771,58.049c-4.8-3.539-12.259-.316-9.352,6.129,2.022,4.36,6.572,7.583,9.857,10.932,2.338,2.338,4.613,4.676,6.888,7.14,1.769,1.9,3.539,3.728,5.371,5.561-2.844,8.088.126,15.924,8.278,19.462,4.17,1.832,8.594,2.464,13.017,3.286,4.044.758,7.14,3.412,9.984,6.256a5.982,5.982,0,0,0-.569,1.074c-.506,1.9,1.453,3.728,2.844,5.055-.126.19-.316.316-.442.506a1.551,1.551,0,0,0,0,2.085c2.78,2.844,5.371,5.813,8.151,8.594a1.544,1.544,0,0,0,1.769.253c2.97-1.39,5.371-4.486,7.519-6.761,2.717-2.844,5.371-5.624,8.215-8.341C122.513,117.194,130.1,111.76,127.5,107.906Zm-32.732,6.7c-3.981-3.855-7.646-6.319-13.27-7.267-9.478-1.58-21.105-5.94-17.693-17.314,1.643,1.58,3.223,3.223,4.866,4.8a1.476,1.476,0,0,0,2.085-2.085c-6.382-6.319-12.575-12.827-18.893-19.273-2.78-2.78-7.077-5.813-8.973-9.226-1.2-2.148-1.453-4.36,1.453-4.55,1.832-.126,2.4.379,3.728,1.517,1.137.948,2.085,2.022,3.159,3.1,5.118,5.055,9.731,10.553,15.1,15.418a1.485,1.485,0,0,0,2.464-.632c.7-2.907,2.717-3.728,6.129-2.338a1.515,1.515,0,0,0,2.528-1.011c.7-3.1,2.844-3.539,6.382-1.327a1.468,1.468,0,0,0,2.464-.632c1.643-6.445,8.91,1.959,10.553,3.728a26.581,26.581,0,0,1,5.687,9.162c1.832,5.308,2.907,10.173,6.256,14.786-.126.126-.316.253-.442.379-2.148,1.706-4.17,3.6-6.193,5.5-1.769,1.706-3.475,3.539-5.118,5.308C96.416,113.15,95.594,113.845,94.773,114.6Zm.7,4.17c0-.632,1.39-1.706,2.022-2.4,2.212-2.4,4.36-4.739,6.7-7.014a86.065,86.065,0,0,1,7.709-6.7c1.453-1.137,1.327-.632,2.338.506-2.275,2.148-4.234,4.929-6.256,6.888-3.665,3.6-7.456,6.951-10.932,10.679C96.479,119.975,95.468,118.9,95.468,118.774Zm8.594,12.385c-2.148-2.212-4.234-4.486-6.382-6.761,4.866-5.561,10.489-10.173,15.544-15.608,1.011-1.137,2.022-2.275,3.1-3.349.632-.632,1.959-1.706,1.9-1.706,1.264.063,5.94,4.866,6.888,5.877C125.546,110.18,108.864,127.494,104.062,131.159Z" transform="translate(-14.27 -20.831)"/>
    <path id="Path_18" data-name="Path 18" class="cls-2" d="M138.87,159.229l-.19.19a.328.328,0,0,0-.126.253,3.267,3.267,0,0,0,.821,4.613,3.372,3.372,0,0,0,4.613-1.074,3.931,3.931,0,0,0-.632-4.8C141.966,157.08,139.944,157.9,138.87,159.229Zm3.223,2.78a1.2,1.2,0,0,1-1.453.379c-.758-.442-.442-1.264,0-1.832.379-.505,1.137-.885,1.517-.253A1.529,1.529,0,0,1,142.093,162.009Z" transform="translate(-50.785 -58.063)"/>
    <path id="Path_19" data-name="Path 19" class="cls-2" d="M54.64,56.553C55.967,44.1,39.474,40.882,31.892,48.023c-8.4,7.962-4.676,25.023,8.657,23.633,1.39-.126,1.39-2.338,0-2.212-11.5,1.2-14.154-13.27-7.077-19.841,6.256-5.813,20.094-3.475,18.957,7.014C52.239,58.006,54.45,58.006,54.64,56.553Z" transform="translate(-10.092 -16.302)"/>
    <path id="Path_20" data-name="Path 20" class="cls-2" d="M40.857,69.826c-5.624,2.275-12.575.063-16.682-4.234-6.129-6.508-3.855-17.819,1.706-23.822A17.076,17.076,0,0,1,46.8,38.547c6.319,3.412,10.679,12.764,6.824,19.4-.7,1.2,1.2,2.338,1.9,1.137,4.17-7.14.506-16.808-5.94-21.358a19.345,19.345,0,0,0-24.328,1.58c-6.635,6.319-9.478,17.819-4.234,25.907,4.044,6.256,13.4,9.6,20.41,6.824C42.752,71.469,42.184,69.32,40.857,69.826Z" transform="translate(-6.735 -12.577)"/>
    <path id="Path_21" data-name="Path 21" class="cls-2" d="M162.1,138a1.106,1.106,0,0,0-1.9,1.137c.632,1.011,1.2,2.085,1.832,3.1a1.106,1.106,0,0,0,1.9-1.137C163.3,140.081,162.728,139.07,162.1,138Z" transform="translate(-58.908 -50.605)"/>
    <path id="Path_22" data-name="Path 22" class="cls-2" d="M167.213,137.181a1.058,1.058,0,0,0-1.517-.379,1.11,1.11,0,0,0-.379,1.517c.442,1.011.885,2.022,1.39,3.1a1.058,1.058,0,0,0,1.517.379,1.11,1.11,0,0,0,.379-1.517C168.1,139.266,167.656,138.255,167.213,137.181Z" transform="translate(-60.803 -50.296)"/>
    <path id="Path_23" data-name="Path 23" class="cls-1" d="M108.559,0H20.347A20.334,20.334,0,0,0,0,20.347v88.275a20.32,20.32,0,0,0,20.347,20.284H49.1c.126.19.253.316.379.506l11.311,11.311a3.453,3.453,0,0,0,2.4,1.011,3.3,3.3,0,0,0,2.4-1.011L76.9,129.411a3.506,3.506,0,0,0,.379-.506h31.279a20.374,20.374,0,0,0,20.347-20.347V20.347A20.334,20.334,0,0,0,108.559,0Zm17.187,108.559a17.2,17.2,0,0,1-17.187,17.187H76.4l-.063.063-1.643,1.011a.2.2,0,0,1,.063.126s0,.126-.063.126L63.378,138.384c-.126.126-.19.126-.316,0l-7.709-7.709-3.6-3.6a.2.2,0,0,1-.063-.126s0-.126.063-.126l-.569-1.074h-30.9A17.192,17.192,0,0,1,3.159,108.559V20.347A17.2,17.2,0,0,1,20.347,3.159h88.275a17.2,17.2,0,0,1,17.187,17.187v88.212Z"/>
  </g>
</svg>
