<svg xmlns="http://www.w3.org/2000/svg" viewBox="6169.008 946.501 128.905 141.733">
  <defs>
    <style>
      .cls-1 {
        fill: #192e60;
      }

      .cls-2 {
        fill: #fff;
      }

      .cls-3 {
        fill: #dd571b;
      }
    </style>
  </defs>
  <g id="ICONO_1-05" data-name="ICONO 1-05" transform="translate(6169.008 946.501)">
    <path id="Path_1" data-name="Path 1" class="cls-1" d="M104.976,51.915c-10.995-9.794-27.74-11.058-40.5-4.423-13.08,6.888-21.737,21.358-19.652,36.27,2.4,17.061,22.053,25.844,37.408,26.223a35.422,35.422,0,0,0,19.715-5.245c6.129-3.665,10.047-8.846,12.7-15.481C119.762,76.622,115.086,60.951,104.976,51.915Zm9.542,26.6c-3.223.7-6.445,1.2-9.668,1.643,0-1.39-.063-2.78-.19-4.234a44.956,44.956,0,0,0-2.275-10.868,45.789,45.789,0,0,0,6.824-4.55A33.078,33.078,0,0,1,114.517,78.517ZM61.565,80.476a35.884,35.884,0,0,1,1.959-13.838A60.674,60.674,0,0,0,77.931,70.05a35.507,35.507,0,0,0,5.813.253c.379,3.728.7,7.519.885,11.311-1.264.063-2.528.126-3.791.126-6.319.19-12.764.379-19.146.063A7.887,7.887,0,0,1,61.565,80.476ZM83.491,68.091a34.565,34.565,0,0,1-7.2-.506,71.829,71.829,0,0,1-11.943-3.033c.442-1.074,1.011-2.148,1.58-3.286,3.286-6.066,7.9-11.88,14.028-15.229C81.469,53.368,82.67,60.761,83.491,68.091ZM82.164,46.038c8.594,3.223,14.407,9.857,17.567,17.946A40.89,40.89,0,0,1,85.64,67.965C84.818,60.635,83.681,53.3,82.164,46.038Zm-1.39,37.977c1.327-.063,2.591-.063,3.918-.126.126,2.591.19,5.181.19,7.835H82.859A60.36,60.36,0,0,0,66.051,94.5a28.152,28.152,0,0,1-4.107-10.426C68.2,84.331,74.519,84.2,80.774,84.015Zm2.148,9.857h2.022q0,6.824-.379,13.649A30.47,30.47,0,0,1,67.441,96.4,57.846,57.846,0,0,1,82.923,93.872Zm-5.245,13.586a43.659,43.659,0,0,1-19.462-7.2,49.612,49.612,0,0,1,6.951-3.159A33.159,33.159,0,0,0,77.678,107.458Zm9.415-13.522A61.448,61.448,0,0,1,98.4,95.262c-2.907,4.992-6.508,9.1-11.69,11.816C86.967,102.655,87.093,98.3,87.093,93.935Zm0-2.212c0-2.654-.126-5.308-.19-7.962,5.245-.253,10.489-.569,15.734-1.137a26.543,26.543,0,0,1-3.1,10.616A63.84,63.84,0,0,0,87.093,91.724ZM86.777,81.55c-.19-3.791-.506-7.583-.885-11.374a44.358,44.358,0,0,0,14.6-4.17,43.151,43.151,0,0,1,2.085,10.742c.063,1.264.126,2.464.126,3.6C97.393,80.982,92.085,81.361,86.777,81.55Zm21.295-22.874a45.073,45.073,0,0,1-6.382,4.3,32.993,32.993,0,0,0-14.6-17.061,39.385,39.385,0,0,1,12.069,4.739A27.759,27.759,0,0,1,108.072,58.676ZM61,52.294A34.84,34.84,0,0,1,75.719,46.1c-4.992,3.6-8.846,8.783-11.753,14.091-.632,1.2-1.2,2.338-1.706,3.539a32.865,32.865,0,0,1-8.025-5.055A37.766,37.766,0,0,1,61,52.294Zm-8.025,8.151A33.916,33.916,0,0,0,61.5,65.816a39.916,39.916,0,0,0-2.085,15.86v.063a99.574,99.574,0,0,1-12.954-1.706C46.273,73.146,48.864,66.132,52.971,60.445Zm-4.36,28.561a23.5,23.5,0,0,1-1.9-6.761,89.646,89.646,0,0,0,12.954,1.643A28.9,28.9,0,0,0,63.9,95.2a46.584,46.584,0,0,0-7.583,3.6A26.613,26.613,0,0,1,48.611,89.007Zm42.653,17.819a33.623,33.623,0,0,0,9.352-10.995,29.749,29.749,0,0,1,5.94,2.338A31.889,31.889,0,0,1,91.264,106.826Zm16.808-10.363a37.5,37.5,0,0,0-6.382-2.591,30.738,30.738,0,0,0,3.159-11.5c3.223-.379,6.445-.948,9.6-1.58a24.355,24.355,0,0,1-.442,3.1A29.749,29.749,0,0,1,108.072,96.463Z" transform="translate(-16.385 -15.96)"/>
    <path id="Path_2" data-name="Path 2" class="cls-1" d="M46.827,63.134A44.848,44.848,0,0,1,56.747,50.5c.821-.7-.379-1.9-1.137-1.137A45.082,45.082,0,0,0,45.437,62.312C44.931,63.2,46.321,64.082,46.827,63.134Z" transform="translate(-16.686 -18.08)"/>
    <path id="Path_3" data-name="Path 3" class="cls-1" d="M47.029,58.231a18.572,18.572,0,0,1,3.539-4.739.8.8,0,0,0-1.137-1.137,21.521,21.521,0,0,0-3.791,5.118C45.133,58.357,46.586,59.179,47.029,58.231Z" transform="translate(-16.761 -19.18)"/>
    <path id="Path_4" data-name="Path 4" class="cls-1" d="M141.614,135.439a26.527,26.527,0,0,1-11.248,7.835c-1.011.379-.569,1.959.442,1.58a28.168,28.168,0,0,0,11.943-8.278C143.51,135.818,142.309,134.618,141.614,135.439Z" transform="translate(-47.779 -49.755)"/>
    <path id="Path_5" data-name="Path 5" class="cls-1" d="M144.215,144.135a9.956,9.956,0,0,1-3.159,2.464c-.948.442-.126,1.9.821,1.453a12.315,12.315,0,0,0,3.539-2.717C146.047,144.451,144.91,143.313,144.215,144.135Z" transform="translate(-51.769 -52.953)"/>
    <g id="Group_7" data-name="Group 7" transform="translate(51.425 39.597)">
      <path id="Path_6" data-name="Path 6" class="cls-2" d="M139.022,68.185c-5.182-6.951-14.344-6.824-21.105-2.464a44.952,44.952,0,0,0-9.542,8.783c-2.4,2.843-5.245,6.193-6.508,9.731-.063.19-.126.379-.19.632a28.465,28.465,0,0,0-9.921,7.14c-3.159,3.349-6.508,7.14-8.657,11.248a13.98,13.98,0,0,0,3.6,17.756c6.319,4.992,15.165-.379,20.22-4.613a54.349,54.349,0,0,0,9.6-10.868,35.1,35.1,0,0,0,3.286-5.5c7.456-1.2,12.7-6.951,16.619-13.017C140.033,81.391,143.508,74.188,139.022,68.185Z" transform="translate(-81.383 -62.665)"/>
      <path id="Path_7" data-name="Path 7" class="cls-2" d="M143.488,66.971a27.626,27.626,0,0,0-6.824,4.107c-.7.632.316,1.643,1.011,1.011a25.508,25.508,0,0,1,6.572-3.918C145.131,67.918,144.373,66.655,143.488,66.971Z" transform="translate(-101.646 -64.232)"/>
      <path id="Path_8" data-name="Path 8" class="cls-2" d="M151.986,66a.727.727,0,0,0,0,1.453C152.934,67.517,152.934,66,151.986,66Z" transform="translate(-107.111 -63.893)"/>
      <path id="Path_9" data-name="Path 9" class="cls-2" d="M102.942,149.546a13.148,13.148,0,0,1-7.583,1.2c-.948-.126-1.327,1.264-.379,1.39a14.846,14.846,0,0,0,8.72-1.327C104.522,150.368,103.763,149.1,102.942,149.546Z" transform="translate(-86.186 -94.613)"/>
      <path id="Path_10" data-name="Path 10" class="cls-2" d="M111.886,147.4a.727.727,0,0,0,0,1.453C112.834,148.916,112.834,147.4,111.886,147.4Z" transform="translate(-92.349 -93.857)"/>
    </g>
    <g id="Group_8" data-name="Group 8" transform="translate(51.425 39.597)">
      <path id="Path_11" data-name="Path 11" class="cls-3" d="M139.022,68.185c-5.182-6.951-14.344-6.824-21.105-2.464a44.952,44.952,0,0,0-9.542,8.783c-2.4,2.843-5.245,6.193-6.508,9.731-.063.19-.126.379-.19.632a28.465,28.465,0,0,0-9.921,7.14c-3.159,3.349-6.508,7.14-8.657,11.248a13.98,13.98,0,0,0,3.6,17.756c6.319,4.992,15.165-.379,20.22-4.613a54.349,54.349,0,0,0,9.6-10.868,35.1,35.1,0,0,0,3.286-5.5c7.456-1.2,12.7-6.951,16.619-13.017C140.033,81.391,143.508,74.188,139.022,68.185Zm-26.539,14.66c.632-.948,1.264-1.769,1.769-2.464,3.033-3.918,6.382-8.531,11.437-9.857,3.539-.948,7.014,1.074,6.7,4.992a11.616,11.616,0,0,1-2.528,5.94c-2.464,3.286-5.181,6.7-8.783,8.783C120.065,86,117.032,82.465,112.483,82.844Zm-2.907,16.808c-1.2,1.643-2.4,3.033-2.907,3.665-2.338,3.1-4.676,6.7-8.215,8.531-1.832.948-5.561,2.022-7.077.126-2.085-2.591.253-6.761,1.769-8.973a47.655,47.655,0,0,1,9.731-9.794A17.228,17.228,0,0,0,109.576,99.653ZM97.7,120.315c-4.739,1.832-9.226,1.264-12.322-3.033-2.4-3.286-3.349-7.077-2.022-10.995,1.453-4.423,4.866-8.025,7.835-11.5a30.438,30.438,0,0,1,10.173-8.215v.316a11.119,11.119,0,0,0-1.264.569.731.731,0,0,0-.253,1.011.717.717,0,0,0,1.011.253c.19-.063.379-.19.569-.253v.126l-.948.569a.737.737,0,0,0,.758,1.264,1.584,1.584,0,0,1,.442-.253c0,.063,0,.126.063.126l-.569.379a.737.737,0,1,0,.758,1.264c.126-.063.19-.126.316-.19,0,.063.063.063.063.126h-.063c-4.929,3.855-12.385,9.731-13.017,16.555-.19,2.212.506,5.055,2.78,5.687a10.55,10.55,0,0,0,7.2-1.011c5.181-2.717,8.278-8.72,11.943-13.017,2.275-2.717,5.687-10.11-.758-10.489,0-.063,0-.063-.063-.126h.063a.727.727,0,0,0,0-1.453h-.253V87.9c.316,0,.632.063,1.011.063.379.063.758-.379.758-.758a.768.768,0,0,0-.758-.758c-.19,0-.442-.063-.632-.063.063-.126.063-.19.126-.316.19,0,.379.063.569.063.379.063.758-.379.758-.758,0-.442-.316-.632-.7-.7.063-.063.063-.19.126-.253,4.3-1.074,7.14,1.9,8.215,5.813,1.074,3.855-.253,7.772-2.212,11.121C112.988,109,106.227,117.03,97.7,120.315Zm22.811-21.99c0-.063.063-.19.063-.253a.8.8,0,0,0,.379-.063c.379-.19.821-.442,1.2-.632.821-.442.126-1.706-.758-1.264a.479.479,0,0,1-.253.126c0-.126.063-.253.063-.442a13.517,13.517,0,0,0,1.39-.632.731.731,0,0,0,.253-1.011.717.717,0,0,0-1.011-.253c-.126.063-.316.126-.442.19v-.379c.316-.126.569-.19.885-.316a.72.72,0,0,0-.379-1.39c-.19.063-.316.126-.506.19a1.392,1.392,0,0,0-.063-.506c3.159-1.706,5.181-4.107,7.519-6.824,1.769-2.148,3.539-4.17,4.486-6.888,1.706-5.055-1.453-10.173-7.14-9.162-6.7,1.2-11.627,8.088-15.229,13.333-2.591,3.728-3.791,9.415,1.9,10.679v.316a2.619,2.619,0,0,0-1.011-.126.815.815,0,0,0-.758.758.768.768,0,0,0,.758.758,1.87,1.87,0,0,1,.632.126c-.063.126-.063.253-.126.379a4.086,4.086,0,0,1-.821-.253.721.721,0,0,0-.379,1.39,1.845,1.845,0,0,0,.569.126c-.063.126-.19.316-.253.442-.316-.126-.569-.19-.885-.316a.721.721,0,0,0-.379,1.39,1.487,1.487,0,0,0,.506.126.631.631,0,0,1-.253.316,13.18,13.18,0,0,1-7.077-8.467c-1.011-3.6.126-6.129,2.085-9.1,4.486-6.888,11.816-15.544,20.473-16.745A12.729,12.729,0,0,1,138.832,70.4c1.959,3.918.506,8.467-1.517,12.069C133.714,89.29,128.343,96.746,120.508,98.326Z" transform="translate(-81.383 -62.665)"/>
      <path id="Path_12" data-name="Path 12" class="cls-3" d="M143.488,66.971a27.626,27.626,0,0,0-6.824,4.107c-.7.632.316,1.643,1.011,1.011a25.508,25.508,0,0,1,6.572-3.918C145.131,67.918,144.373,66.655,143.488,66.971Z" transform="translate(-101.646 -64.232)"/>
      <path id="Path_13" data-name="Path 13" class="cls-3" d="M151.986,66a.727.727,0,0,0,0,1.453C152.934,67.517,152.934,66,151.986,66Z" transform="translate(-107.111 -63.893)"/>
      <path id="Path_14" data-name="Path 14" class="cls-3" d="M102.942,149.546a13.148,13.148,0,0,1-7.583,1.2c-.948-.126-1.327,1.264-.379,1.39a14.846,14.846,0,0,0,8.72-1.327C104.522,150.368,103.763,149.1,102.942,149.546Z" transform="translate(-86.186 -94.613)"/>
      <path id="Path_15" data-name="Path 15" class="cls-3" d="M111.886,147.4a.727.727,0,0,0,0,1.453C112.834,148.916,112.834,147.4,111.886,147.4Z" transform="translate(-92.349 -93.857)"/>
    </g>
    <path id="Path_16" data-name="Path 16" class="cls-1" d="M108.559,0H20.347A20.334,20.334,0,0,0,0,20.347v88.275a20.32,20.32,0,0,0,20.347,20.284H49.1c.126.19.253.316.379.506l11.311,11.311a3.453,3.453,0,0,0,2.4,1.011,3.3,3.3,0,0,0,2.4-1.011L76.9,129.411a3.505,3.505,0,0,0,.379-.506h31.279a20.374,20.374,0,0,0,20.347-20.347V20.347A20.334,20.334,0,0,0,108.559,0Zm17.187,108.559a17.2,17.2,0,0,1-17.187,17.187H76.4l-.063.063-1.643,1.011a.2.2,0,0,1,.063.126s0,.126-.063.126L63.378,138.384c-.126.126-.19.126-.316,0l-7.709-7.709-3.6-3.6a.2.2,0,0,1-.063-.126s0-.126.063-.126l-.569-1.074h-30.9A17.192,17.192,0,0,1,3.159,108.559V20.347A17.2,17.2,0,0,1,20.347,3.159h88.275a17.2,17.2,0,0,1,17.187,17.187v88.212Z"/>
  </g>
</svg>
