<svg xmlns="http://www.w3.org/2000/svg" viewBox="6746.562 946.501 128.905 141.733">
  <defs>
    <style>
      .cls-1 {
        fill: #dd571b;
      }

      .cls-2 {
        fill: #ffffff;
      }

      .cls-3 {
        fill: #ffffff;
      }

      .cls-4 {
        fill: #ffffff;
      }

      .cls-5 {
        fill: #ffffff;
      }
    </style>
  </defs>
  <g id="ICONO_5-05" data-name="ICONO 5-05" transform="translate(6746.562 946.501)">
    <path id="Path_53" data-name="Path 53" class="cls-1" d="M176.105,67.3a9.4,9.4,0,0,1,3.6,1.9c.821.7,1.959-.632,1.137-1.327a11.437,11.437,0,0,0-3.981-2.085C175.853,65.531,175.031,67.047,176.105,67.3Z" transform="translate(-64.64 -27.997)"/>
    <path id="Path_54" data-name="Path 54" class="cls-2" d="M108.559,6H20.347A20.334,20.334,0,0,0,0,26.347v88.275a20.32,20.32,0,0,0,20.347,20.284H49.1c.126.19.253.316.379.506l11.311,11.311a3.453,3.453,0,0,0,2.4,1.011,3.3,3.3,0,0,0,2.4-1.011L76.9,135.411a3.5,3.5,0,0,0,.379-.506h31.279a20.374,20.374,0,0,0,20.347-20.347V26.347A20.334,20.334,0,0,0,108.559,6Zm17.187,108.559a17.2,17.2,0,0,1-17.187,17.187H76.4l-.063.063-1.643,1.011a.2.2,0,0,1,.063.126s0,.126-.063.126L63.378,144.384c-.126.126-.19.126-.316,0l-7.709-7.709-3.6-3.6a.2.2,0,0,1-.063-.126s0-.126.063-.126l-.569-1.074h-30.9A17.192,17.192,0,0,1,3.159,114.559V26.347A17.2,17.2,0,0,1,20.347,9.159h88.275a17.2,17.2,0,0,1,17.187,17.187v88.212Z" transform="translate(0 -6)"/>
    <path id="Path_55" data-name="Path 55" class="cls-1" d="M155.057,68.68c-.063-7.077-.126-14.218-.126-21.295,0-6.256-2.464-8.72-8.72-8.72H105.264c-.821,0-1.643-.063-2.464-.126.316-1.9,1.706-2.78,3.412-3.223A14.483,14.483,0,0,1,109.5,35h42.21c4.8,0,6.761,1.832,6.761,6.7.063,7.33,0,14.6,0,21.927C158.406,66.468,157.332,68.048,155.057,68.68Z" transform="translate(-37.842 -16.675)"/>
    <path id="Path_56" data-name="Path 56" class="cls-1" d="M102.152,45.226c1.832-.063,3.6-.126,5.434-.126H146.51c2.338,0,4.3.506,5.055,3.033,0,7.456-.126,14.913-.063,22.369,0,1.832-.632,2.464-2.464,2.4-6.319-.063-12.7,0-19.02-.063a8.32,8.32,0,0,0-3.855.821c-2.717,1.39-5.5,2.717-8.215,4.044-3.349,1.643-6.7,3.349-10.047,4.992-.506.253-1.074.506-1.58,0s-.063-1.011.19-1.517c1.074-2.022,2.085-4.107,3.159-6.066.758-1.453.569-2.148-1.2-2.275-4.866-.379-6.635-2.338-6.572-7.267C102.025,58.875,101.709,52.051,102.152,45.226Zm25.971,12.638v-.379c-.063.063-.063.19-.126.253a5.564,5.564,0,0,0-2.464-.506c-.316.506-.316.506-.569.126a8.151,8.151,0,0,0-1.58,1.264,3.574,3.574,0,0,0,.442,4.992c1.769,1.453,3.855,1.011,5.687-1.2-.569-.442-.19-1.074-.569-2.275-.316-.948-.632-1.2-.569-2.212C128.186,58.054,128.122,57.991,128.122,57.864Zm-13.27-.063c-1.074.442-2.275.506-2.78,1.643a3.6,3.6,0,0,0,1.39,4.55c1.769,1.074,2.78.758,4.423-1.327,1.453-1.264.758-3.223-.632-4.3C115.99,57.422,116.5,57.106,114.853,57.8Zm21.547-.569c-.821-.821-1.2-.442-1.39.506-1.39,1.137-2.148,2.528-1.517,4.36a3.242,3.242,0,0,0,3.033,2.4c1.832.19,2.97-.758,3.791-2.338,1.2-.442,1.39-1.327,1.074-2.464a2.645,2.645,0,0,0-3.033-2.148C137.727,57.485,137.032,57.359,136.4,57.232Z" transform="translate(-37.51 -20.393)"/>
    <path id="Path_57" data-name="Path 57" class="cls-3" d="M70.312,147.2a.6.6,0,0,1-.821.126c-.063-.379-.063-.885-.569-.885-.506-.063-.632.379-.7.821a1.256,1.256,0,0,1-1.327,0c.126-.821.758-1.517.442-2.4a4.17,4.17,0,0,0,.885-.063c.063.316,0,.758.506.758s.379-.442.442-.758c.253.063.569.063.821.126C69.68,145.685,70.059,146.38,70.312,147.2Z" transform="translate(-24.627 -57.094)"/>
    <path id="Path_58" data-name="Path 58" class="cls-3" d="M88.938,147.863l.19-.063.126.126c-1.011,1.137-1.39,1.137-2.654-.063C87.421,147.737,88.306,149,88.938,147.863Z" transform="translate(-31.878 -58.198)"/>
    <path id="Path_59" data-name="Path 59" class="cls-2" d="M141.443,69.581c-1.832,2.212-3.918,2.654-5.687,1.2a3.522,3.522,0,0,1-.442-4.992,15.373,15.373,0,0,1,1.58-1.264c.19-.063.379-.063.569-.126a5.39,5.39,0,0,1,2.464.506l.126.063c0,.063.063.126.19.126A4.168,4.168,0,0,1,141.443,69.581Zm-3.286-3.475a1.77,1.77,0,0,0-1.769,1.959,1.8,1.8,0,0,0,2.085,1.832,1.707,1.707,0,0,0,1.643-2.022A1.931,1.931,0,0,0,138.157,66.106Z" transform="translate(-49.503 -27.498)"/>
    <path id="Path_60" data-name="Path 60" class="cls-2" d="M158.608,69.229a3.658,3.658,0,0,1-3.791,2.338,3.32,3.32,0,0,1-3.033-2.4,3.838,3.838,0,0,1,1.517-4.36c.442-.126.885-.316,1.39-.506.632.126,1.327.19,1.959.316A4.156,4.156,0,0,1,158.608,69.229Zm-1.453-1.137c-.063-1.074-.569-1.9-1.706-1.959a1.65,1.65,0,0,0-1.959,1.643,1.729,1.729,0,0,0,1.769,2.085C156.4,69.924,156.966,69.166,157.155,68.091Z" transform="translate(-55.8 -27.461)"/>
    <path id="Path_61" data-name="Path 61" class="cls-2" d="M124.478,69.618c-1.643,2.085-3.412,2.591-5.181,1.517a3.53,3.53,0,0,1-1.39-4.55,4.213,4.213,0,0,1,2.464-2.085C123.72,64.5,124.857,66.017,124.478,69.618ZM121.255,70a1.885,1.885,0,0,0,1.832-2.085,1.763,1.763,0,0,0-1.959-1.706,1.715,1.715,0,0,0-1.9,1.706A2.08,2.08,0,0,0,121.255,70Z" transform="translate(-43.28 -27.534)"/>
    <path id="Path_62" data-name="Path 62" class="cls-4" d="M155.69,64.037c-.442.19-.948.316-1.39.506C154.553,63.595,154.932,63.216,155.69,64.037Z" transform="translate(-56.799 -27.198)"/>
    <path id="Path_63" data-name="Path 63" class="cls-4" d="M138.969,64.4c-.19.063-.379.063-.569.126" transform="translate(-50.947 -27.498)"/>
    <path id="Path_64" data-name="Path 64" class="cls-4" d="M143.326,65.116l-.126-.063c.063-.063.063-.19.126-.253Z" transform="translate(-52.713 -27.645)"/>
    <path id="Path_65" data-name="Path 65" class="cls-5" d="M69.748,144.7c0,.316.063.758-.442.758s-.442-.442-.506-.758Z" transform="translate(-25.326 -57.057)"/>
    <path id="Path_66" data-name="Path 66" class="cls-5" d="M69,148.121c.063-.442.19-.821.7-.821.506.063.506.505.569.885A4.252,4.252,0,0,1,69,148.121Z" transform="translate(-25.4 -58.014)"/>
    <g id="Group_18" data-name="Group 18" transform="translate(14.154 21.8)">
      <path id="Path_67" data-name="Path 67" class="cls-2" d="M65.023,103.054c3.855.379,8.467-3.728,8.53-8.025A8.282,8.282,0,1,0,57,94.523,8.351,8.351,0,0,0,65.023,103.054Zm.316-13.775a5.5,5.5,0,1,1-5.561,5.371A5.49,5.49,0,0,1,65.339,89.278Z" transform="translate(-35.135 -57.431)"/>
      <path id="Path_68" data-name="Path 68" class="cls-2" d="M74.574,128.1c-.506,0-1.011-.063-1.074.7a.9.9,0,0,0,1.011,1.011c.316,0,.7-.063,1.011-.063.948.063,1.959.063,2.907.126.632,0,.885-.253.885-.885s-.253-.885-.885-.885c-.948.063-1.959.063-2.907.126A4.878,4.878,0,0,0,74.574,128.1Z" transform="translate(-41.21 -72.746)"/>
      <path id="Path_69" data-name="Path 69" class="cls-2" d="M27.139,105.964c-.442.948-1.2-.063-1.769.316-.19,2.212-2.022.7-2.97,1.264.126,5.308,2.907,7.835,8.531,7.835h84.1a16.938,16.938,0,0,0,2.528-.126,6.98,6.98,0,0,0,5.877-4.423c1.39-3.412.379-5.245-2.844-4.613-1.011.19-1.517-.126-1.517-1.327.063-8.657,0-17.314,0-25.971,0-.632-.063-1.2.821-1.453,3.539-.885,4.992-3.475,5.5-6.824-.063-7.077-.126-14.217-.126-21.295,0-6.256-2.464-8.72-8.72-8.72H75.605c-.821,0-1.643-.063-2.464-.126-5.371,1.2-7.014,3.223-7.014,8.657,0,1.39-.126,2.78,0,4.17.19,1.832-.569,2.148-2.212,2.148-11.564-.063-23.127,0-34.691-.063-1.643,0-2.085.442-2.085,2.085.063,7.519.063,14.913.063,22.369h-.063v21.927M71.055,43.975c.506-.632,1.2-.506,1.832-.442,1.832-.063,3.6-.126,5.434-.126h38.924c2.338,0,4.3.506,5.055,3.1a20.356,20.356,0,0,1,.19,5.181c.063,6.193,0,12.385,0,18.514,0,.821.19,1.706-.506,2.338A3.761,3.761,0,0,1,118.068,75c-7.9,0-15.734,0-23.633-.063C87.99,77.718,81.8,81.067,75.479,84.1a3.412,3.412,0,0,1-2.085.632c1.011-3.1,3.1-5.624,4.044-8.657-.442-1.327-1.58-1.137-2.591-1.137-4.866-.063-6-1.2-6-6V48.272A4.467,4.467,0,0,1,71.055,43.975ZM31.942,58.193q16.113.095,32.226,0c1.517,0,2.085.316,2.022,1.959-.126,3.349-.063,6.7,0,10.047.063,4.3,2.085,6.824,6.319,7.519,1.264.19,1.327.569.758,1.58C72,81.7,70.74,84.1,69.539,86.565c-.442.821-1.2,1.706-.316,2.654.948,1.011,1.832.19,2.654-.253,6.7-3.286,13.4-6.572,20.031-9.921a11.212,11.212,0,0,1,5.181-1.264c5.877.063,11.69.063,17.567,0,1.517,0,1.832.442,1.832,1.9-.063,8.215-.063,16.492,0,24.707,0,1.517-.379,2.022-1.959,2.022-7.583-.063-15.229,0-22.811-.063A2.838,2.838,0,0,0,89,107.417c-.7,1.011-1.959.948-3.1.948H68.338a11.485,11.485,0,0,1-3.286-.569c.253-1.011.063-10.679.063-12.259-.19-1.264-1.58-5.245-2.338-5.813-.569-1.39-1.9-1.769-3.033-2.4-1.2-1.137-1.58-.253-2.97.569-.821.379-1.643.7-2.464,1.074a.687.687,0,0,1,.063.316,2.737,2.737,0,0,0-.063-.316,7.4,7.4,0,0,1-5.75-1.011c-.7-.632-1.2-1.643-2.4-1.137-2.148.948-5.75,2.78-5.94,12.2a52.9,52.9,0,0,1-.126,6.129,5.531,5.531,0,0,0-.126,1.011H30.931c-.758-.316-1.137-.948-1.011-2.275,0-14.533.063-29,0-43.537C29.856,58.635,30.235,58.13,31.942,58.193Zm30.52,40.315c0,2.275.063,4.613-.063,6.888-.063,1.011.569,2.654-.506,2.844-1.327.253-3.1.7-4.3-.632a3.666,3.666,0,0,0-3.1-1.39l-11.627-.19a.872.872,0,0,1-.19-.253,2.15,2.15,0,0,0-.063-.632,94.437,94.437,0,0,0,.316-11.374,7.274,7.274,0,0,1,3.286-4.3c2.4,1.832,4.992,2.97,8.088,2.085,1.011-.063,4.17-2.148,5.245-1.832.442.442.948.885,1.39,1.39C62.588,93.326,62.462,95.917,62.462,98.507Zm57.944,12.322c-1.2,1.517-2.78,1.832-4.676,1.832-20.979-.063-42.021,0-63,0H30.109a4.983,4.983,0,0,1-4.234-1.9c-.316-.442-.821-.948-.506-1.517.253-.506.948-.442,1.453-.442a17.717,17.717,0,0,1,1.832,0,10.49,10.49,0,0,0,1.39.19l24.391.063s.506-.253.632-.126c1.9,2.275,4.423,1.959,6.888,1.959H86.031a6.039,6.039,0,0,0,4.613-1.517,2.452,2.452,0,0,1,1.959-.506h26.792c.506,0,1.264-.316,1.517.316C121.164,109.881,120.722,110.387,120.406,110.829Z" transform="translate(-22.4 -40.5)"/>
    </g>
  </g>
</svg>
