<svg xmlns="http://www.w3.org/2000/svg" viewBox="7511.983 339.989 36.085 39.378">
  <defs>
    <style>
      .cls-1 {
        fill: #003e86;
      }
    </style>
  </defs>
  <g id="Group_226" data-name="Group 226" transform="translate(7511.983 339.989)">
    <g id="Group_22" data-name="Group 22" transform="translate(0)">
      <path id="Path_71" data-name="Path 71" class="cls-1" d="M24.93,16.038c1.921,4.4,5.577,6.8,8.015,6.8,2.4,0,5.762-2.327,7.682-6.694a20.218,20.218,0,0,0,1.182-3.723,14.055,14.055,0,0,0,.48-4.117C42.289,3.83,38.078,0,32.944,0,27.774,0,23.6,3.83,23.6,8.341a18.554,18.554,0,0,0,.222,3.079A17.713,17.713,0,0,0,24.93,16.038Z" transform="translate(-14.884)"/>
      <path id="Path_72" data-name="Path 72" class="cls-1" d="M34.57,72.169c-1.884-1.933-7.128-1.468-9.714-2.792-1.145,2.076-1.182,5.513-3.1,5.513a.647.647,0,0,1-.259-.036c-2.881-.43-1.44-7.553-3.472-7.553s-.591,7.124-3.472,7.553c-.074,0-.185.036-.259.036-1.921,0-1.921-3.437-3.1-5.513-2.585,1.325-7.83.859-9.714,2.792C.517,73.207,0,79.686,0,82.586H36.085C36.085,79.686,35.568,73.207,34.57,72.169Z" transform="translate(0 -43.208)"/>
    </g>
  </g>
</svg>
