<svg xmlns="http://www.w3.org/2000/svg" viewBox="8951.082 387.652 31.425 31.567">
  <defs>
    <style>
      .cls-1 {
        fill: #dd571b;
      }
    </style>
  </defs>
  <path id="Path_74" data-name="Path 74" class="cls-1" d="M15.7,0A10.3,10.3,0,0,0,7.925,3.446,9.071,9.071,0,0,0,5.613,9.47v4.923H0V31.567H31.424v-17.2H25.781V9.441C25.781,4.228,21.248,0,15.7,0Zm2.159,27.049H13.538l1.141-4.228a2.242,2.242,0,0,1-1.388-2.056,2.409,2.409,0,1,1,3.423,2.056Zm4.78-12.685H8.758V9.441a6.072,6.072,0,0,1,1.419-3.91A7.083,7.083,0,0,1,15.7,2.954,6.747,6.747,0,0,1,22.635,9.47Z" transform="translate(8951.082 387.652)"/>
</svg>
